<svg width="40" height="71" viewBox="0 0 40 71" fill="none" xmlns="http://www.w3.org/2000/svg">
<path fill-rule="evenodd" clip-rule="evenodd" d="M0.602051 45.1517V49.2354L39.3979 50.2564V44.3009L20 41.4082L0.602051 45.1517Z" fill="#F5C322"/>
<path fill-rule="evenodd" clip-rule="evenodd" d="M26.8062 66.7616L28.8481 66.5915H29.0183C29.0183 66.5915 29.1884 66.5915 29.3586 66.5915H29.5288C29.5288 66.5915 29.6989 66.5915 29.8691 66.5915L30.3795 66.4213C30.3795 66.4213 30.3795 66.4213 30.5497 66.4213H30.89C31.0602 66.4213 31.2303 66.4213 31.4005 66.4213C31.5706 66.4213 31.7408 66.4213 31.911 66.4213C32.0811 66.4213 32.4214 66.4213 32.5916 66.4213C32.9319 66.2512 33.1021 66.2512 33.4424 66.2512C33.4424 66.2512 36.335 66.081 36.5052 66.081H38.0366C38.2068 65.9109 38.3769 65.9109 38.5471 65.9109C38.8874 65.9109 39.0575 65.9109 39.3979 65.9109V51.7878C39.2277 51.7878 39.0575 51.7878 38.8874 51.7878C38.5471 51.7878 38.3769 51.7878 38.3769 51.7878C38.0366 51.7878 37.6963 51.6177 37.356 51.6177C37.1858 51.6177 37.0157 51.6177 36.8455 51.6177V50.2564C36.8455 50.0862 36.8455 50.0862 37.0157 50.0862C37.1858 49.9161 37.356 50.0862 37.5261 50.0862C37.6963 50.0862 37.8665 50.0862 38.2068 50.0862C38.3769 50.0862 38.5471 50.0862 38.7172 50.0862C38.8874 50.0862 39.0575 50.0862 39.3979 50.2564V48.725C39.0575 48.725 38.8874 48.725 38.7172 48.725C38.5471 48.725 38.2068 48.725 38.0366 48.5548H37.8665C37.6963 48.5548 37.6963 48.5548 37.5261 48.5548C37.356 48.5548 37.1858 48.5548 36.8455 48.5548C36.6754 48.5548 35.3141 48.3847 35.1439 48.2145C34.9738 48.2145 34.8036 48.2145 34.8036 48.2145C34.6335 48.2145 34.6335 48.2145 34.4633 48.2145C34.2932 48.2145 34.123 48.2145 33.7827 48.2145H33.6125C33.4424 48.2145 33.4424 48.0444 33.2722 48.0444C33.1021 48.0444 33.1021 48.0444 32.9319 48.0444L30.5497 47.8742C30.3795 47.704 30.0392 47.8742 29.8691 47.704H29.3586C29.1884 47.704 29.1884 47.704 29.0183 47.704C29.0183 47.704 28.3377 47.5339 28.1675 47.5339C27.8272 47.5339 27.8272 47.5339 27.4869 47.5339C27.3167 47.5339 27.3167 47.5339 27.1466 47.5339C27.1466 47.3637 26.9764 47.5339 26.9764 47.3637C26.8062 47.3637 26.8062 47.3637 26.6361 47.3637C26.4659 47.3637 25.7853 47.3637 25.7853 47.3637C25.6151 47.1936 25.445 47.3637 25.445 47.1936C25.2748 47.1936 25.445 47.1936 25.1047 47.1936C24.9345 47.1936 24.9345 47.1936 24.7644 47.1936C24.5942 47.1936 24.0837 47.1936 23.9136 47.0234C23.7434 47.0234 23.2329 47.0234 23.0628 47.0234L22.3822 46.8533C22.3822 46.8533 22.212 46.8533 22.0418 46.8533C21.8717 46.8533 21.8717 46.8533 21.8717 46.8533C21.7015 46.8533 21.5314 46.8533 21.5314 46.8533C21.3612 46.8533 21.3612 46.8533 21.1911 46.8533C20.8507 46.8533 20.3403 46.6831 20 46.6831C19.8298 46.6831 19.6596 46.8533 19.3193 46.8533C19.1492 46.8533 18.979 46.8533 18.8089 46.8533L17.7879 47.0234C17.6178 47.0234 17.4476 47.0234 17.2774 47.0234C17.1073 47.0234 17.1073 47.0234 16.9371 47.0234C16.9371 47.0234 16.767 47.0234 16.5968 47.0234L16.0863 47.1936H15.9162H15.5759C15.2356 47.1936 14.5549 47.1936 14.2146 47.3637L12.6832 47.5339C12.513 47.5339 12.3429 47.5339 12.1727 47.5339C12.0026 47.5339 11.8324 47.5339 11.8324 47.5339C11.4921 47.5339 11.1518 47.704 10.9816 47.704C10.8115 47.704 10.8115 47.704 10.8115 47.704C10.4712 47.704 10.6413 47.704 10.301 47.704L8.76959 47.8742C8.76959 47.8742 8.76959 47.8742 8.59943 47.8742C8.42928 47.8742 8.42928 48.0444 8.25912 48.0444C7.91881 48.0444 7.40833 48.0444 7.23818 48.0444L6.72771 48.2145C6.21723 48.2145 5.36645 48.3847 4.85598 48.3847C4.68582 48.3847 4.68582 48.3847 4.51566 48.3847C4.34551 48.3847 4.34551 48.3847 4.17535 48.3847C4.00519 48.3847 4.00519 48.3847 4.00519 48.3847L2.98425 48.5548H2.81409H2.13346C2.13346 48.725 1.96331 48.725 1.79315 48.725H1.62299H0.942365C0.602051 48.725 0.602051 48.725 0.602051 49.2355V57.2328C0.602051 58.5941 0.602051 59.9554 0.602051 61.4868C0.602051 62.1674 0.602051 62.848 0.602051 63.5287C0.602051 64.2093 0.602051 64.8899 0.602051 65.5705H0.942365C1.11252 65.5705 1.11252 65.5705 1.28268 65.7407C1.62299 65.7407 1.62299 65.7407 1.96331 65.7407C2.13346 65.7407 2.47378 65.7407 2.64394 65.7407C2.81409 65.7407 2.81409 65.7407 2.98425 65.7407C3.32456 65.9109 4.00519 65.9109 4.34551 65.9109L5.70676 66.081C5.87692 66.081 6.21723 66.081 6.38739 66.081H7.40833C7.57849 66.081 7.74865 66.081 7.74865 66.2512C7.74865 66.2512 7.74865 66.2512 7.91881 66.2512H8.08896C8.25912 66.2512 8.59943 66.2512 8.76959 66.2512L10.1308 66.4213C10.4712 66.4213 10.8115 66.4213 11.1518 66.4213C11.3219 66.4213 11.3219 66.4213 11.4921 66.4213C11.8324 66.4213 11.8324 66.5915 12.0026 66.5915H12.1727C12.513 66.5915 13.8743 66.5915 14.2146 66.7616C14.5549 66.7616 14.7251 66.7616 14.8952 66.7616C15.0654 66.7616 15.2356 66.7616 15.2356 66.7616H15.9162C16.0863 66.7616 16.2565 66.9318 16.2565 66.9318C16.5968 66.9318 16.767 66.9318 16.9371 66.9318C17.4476 66.9318 17.6178 66.9318 17.9581 66.9318C18.1282 66.9318 18.1282 66.9318 18.1282 66.9318C18.2984 66.9318 18.2984 66.9318 18.2984 67.102C18.6387 67.102 18.8089 67.102 18.979 67.102C19.3193 67.102 19.4895 67.102 19.8298 67.102C19.8298 67.102 20 67.102 20.1701 67.102H21.1911C21.3612 67.102 21.7015 67.102 21.8717 66.9318C22.0418 66.9318 22.3822 66.9318 22.5523 66.9318H23.5733C23.7434 66.9318 23.9136 66.9318 24.0837 66.9318C24.2539 66.9318 24.424 66.9318 24.5942 66.7616C24.9345 66.7616 25.2748 66.7616 25.6151 66.7616H25.7853H25.9555C26.1256 66.7616 26.4659 66.7616 26.4659 66.7616C26.6361 66.7616 26.6361 66.7616 26.8062 66.7616ZM13.7041 49.5758L10.9816 49.7459C10.9816 49.9161 10.9816 51.2773 10.9816 51.4475H11.3219C11.4921 51.4475 11.4921 51.4475 11.6623 51.4475C11.8324 51.4475 12.1727 51.2773 12.3429 51.2773C12.513 51.2773 12.8534 51.2773 13.0235 51.2773C13.1937 51.2773 13.1937 51.2773 13.3638 51.2773C13.534 51.2773 13.534 51.2773 13.534 51.2773C13.7041 51.1072 13.7041 51.1072 13.7041 51.1072C13.7041 50.937 13.7041 50.5967 13.7041 50.4266C13.7041 50.2564 13.7041 49.9161 13.7041 49.5758ZM19.1492 59.2747C19.1492 59.4449 19.1492 59.4449 19.3193 59.4449C19.3193 59.4449 19.3193 59.4449 19.3193 59.615C19.4895 59.615 19.4895 59.615 19.4895 59.615C19.3193 59.7852 19.4895 59.615 19.3193 59.7852C19.3193 59.7852 19.3193 59.7852 19.4895 59.9554C19.4895 59.9554 19.4895 59.9554 19.4895 60.1255H19.3193C19.3193 60.1255 19.1492 60.1255 19.1492 60.2957C18.979 60.2957 19.1492 60.2957 18.979 60.2957C18.979 60.2957 18.979 60.2957 18.979 60.1255C18.8089 60.1255 18.8089 60.2957 18.6387 60.2957C18.6387 60.1255 18.6387 60.2957 18.6387 60.1255C18.4685 60.1255 18.6387 60.1255 18.4685 60.1255C18.4685 59.9554 18.4685 60.1255 18.4685 59.9554C18.6387 59.7852 18.6387 59.7852 18.4685 59.615C18.6387 59.615 18.4685 59.615 18.6387 59.4449C18.8089 59.4449 18.6387 59.2747 18.6387 59.2747C18.8089 59.2747 18.8089 59.2747 18.8089 59.4449C18.979 59.4449 18.979 59.2747 19.1492 59.2747ZM18.4685 57.2328C18.4685 57.0627 18.4685 57.0627 18.6387 57.0627C18.8089 57.0627 18.6387 57.0627 18.6387 56.8925C18.8089 56.8925 18.6387 56.8925 18.8089 57.0627C18.979 57.0627 18.979 57.0627 19.1492 56.8925C19.1492 57.0627 19.1492 57.0627 19.3193 57.0627C19.3193 57.2328 19.3193 57.2328 19.3193 57.2328C19.4895 57.2328 19.4895 57.2328 19.4895 57.2328L19.3193 57.403C19.3193 57.5732 19.4895 57.5732 19.4895 57.7433C19.4895 57.7433 19.3193 57.5732 19.3193 57.7433C19.3193 57.9135 19.3193 57.9135 19.1492 57.9135V58.0836C18.979 57.9135 19.1492 57.7433 18.8089 57.9135H18.6387C18.6387 57.7433 18.6387 57.9135 18.4685 57.7433C18.4685 57.5732 18.6387 57.403 18.4685 57.403C18.4685 57.2328 18.4685 57.2328 18.2984 57.2328H18.4685ZM18.4685 54.8506H18.6387V54.6805C18.8089 54.6805 18.8089 54.6805 18.8089 54.6805C18.979 54.6805 18.979 54.6805 18.979 54.6805H19.1492C19.1492 54.5103 19.1492 54.6805 19.3193 54.5103V54.6805H19.4895C19.4895 54.8506 19.4895 54.8506 19.4895 54.8506C19.4895 55.0208 19.4895 55.0208 19.4895 55.0208C19.3193 55.191 19.4895 55.191 19.4895 55.191C19.4895 55.3611 19.4895 55.191 19.4895 55.3611V55.5313H19.3193C19.3193 55.7014 19.3193 55.7014 19.1492 55.5313C18.979 55.5313 18.8089 55.5313 18.8089 55.7014V55.5313C18.6387 55.5313 18.6387 55.5313 18.6387 55.5313V55.3611C18.6387 55.3611 18.6387 55.3611 18.4685 55.3611C18.4685 55.191 18.4685 55.3611 18.6387 55.191C18.6387 55.191 18.6387 55.191 18.6387 55.0208C18.4685 55.0208 18.4685 55.0208 18.4685 54.8506ZM18.4685 52.4684H18.6387V52.2983C18.8089 52.2983 18.8089 52.4684 18.8089 52.2983C18.979 52.2983 18.8089 52.2983 18.979 52.2983C19.1492 52.4684 19.1492 52.2983 19.1492 52.2983V52.1281C19.1492 52.1281 19.1492 52.1281 19.3193 52.1281C19.3193 52.2983 19.3193 52.2983 19.3193 52.2983C19.3193 52.2983 19.4895 52.2983 19.4895 52.4684C19.4895 52.6386 19.4895 52.4684 19.6596 52.4684C19.6596 52.6386 19.6596 52.4684 19.4895 52.6386C19.4895 52.6386 19.4895 52.6386 19.4895 52.8088C19.4895 52.9789 19.4895 52.9789 19.4895 52.9789C19.3193 52.9789 19.4895 53.1491 19.3193 53.1491C19.3193 53.1491 19.3193 52.9789 19.3193 53.3192C19.1492 53.3192 18.979 52.9789 18.979 53.1491C18.8089 53.3192 18.8089 53.3192 18.8089 53.3192V53.1491C18.6387 53.1491 18.6387 53.1491 18.6387 53.1491C18.6387 52.9789 18.6387 52.9789 18.6387 52.9789H18.4685C18.4685 52.8088 18.4685 52.9789 18.6387 52.8088C18.6387 52.6386 18.4685 52.6386 18.4685 52.4684ZM5.19629 49.9161L5.70676 49.7459C5.87692 49.7459 6.21723 49.7459 6.38739 49.7459C6.38739 49.9161 6.38739 51.1072 6.38739 51.2773C6.21723 51.4475 6.04708 51.4475 5.70676 51.4475H4.68582C4.68582 51.4475 4.51566 51.4475 4.34551 51.4475C4.17535 51.4475 3.83504 51.6177 3.83504 51.6177L3.66488 51.4475C3.66488 51.4475 3.66488 51.4475 3.66488 51.2773C3.66488 51.1072 3.66488 50.0862 3.66488 49.9161C3.83504 49.9161 5.02613 49.9161 5.19629 49.9161ZM30.7199 51.2773C30.5497 51.2773 30.3795 51.2773 30.2094 51.2773H30.0392C29.8691 51.1072 29.8691 50.2564 29.8691 50.0862C29.8691 49.9161 29.8691 49.7459 30.0392 49.5758C30.0392 49.5758 30.5497 49.5758 30.7199 49.7459C30.7199 49.7459 30.89 49.7459 31.0602 49.7459H31.2303C31.5706 49.7459 31.911 49.7459 32.0811 49.7459C32.0811 49.7459 32.5916 49.7459 32.5916 49.9161C32.5916 50.0862 32.5916 50.4266 32.5916 50.5967C32.5916 50.937 32.5916 51.2773 32.5916 51.4475C32.4214 51.4475 32.2513 51.4475 32.0811 51.4475H31.7408C31.4005 51.2773 31.0602 51.2773 30.89 51.2773C30.7199 51.2773 30.7199 51.2773 30.7199 51.2773ZM24.424 49.4056C24.7644 49.4056 25.1047 49.4056 25.6151 49.4056C25.7853 49.4056 26.1256 49.4056 26.4659 49.4056C26.6361 49.4056 26.6361 49.4056 26.6361 49.4056C26.6361 49.9161 26.6361 50.7669 26.6361 51.2773V59.1046C26.6361 59.2747 26.6361 59.9554 26.6361 60.1255H26.8062L26.9764 60.4658L27.3167 60.8061C27.3167 60.8061 27.3167 60.8061 27.4869 60.8061C27.4869 60.8061 27.4869 60.8061 27.4869 60.9763C27.657 60.9763 27.4869 60.9763 27.657 61.1465C27.657 61.1465 27.657 60.9763 27.657 61.1465C27.8272 61.1465 27.657 61.1465 27.8272 61.1465L27.9973 61.4868C28.1675 61.4868 28.1675 61.4868 28.1675 61.4868C28.1675 61.6569 28.1675 61.6569 28.1675 61.6569C28.3377 61.6569 28.1675 61.6569 28.3377 61.6569C28.3377 61.8271 28.3377 61.8271 28.3377 61.8271L28.1675 61.6569C27.9973 61.6569 28.1675 61.6569 27.9973 61.4868C27.9973 61.4868 27.9973 61.4868 27.8272 61.4868V61.3166H27.657C27.657 61.1465 27.657 61.1465 27.657 61.1465L27.4869 60.9763C27.3167 60.8061 27.3167 60.9763 27.3167 60.8061C27.3167 60.8061 27.3167 60.8061 27.1466 60.8061C27.1466 60.636 27.1466 60.8061 27.1466 60.636C27.1466 60.636 27.1466 60.636 26.9764 60.4658C26.9764 60.4658 26.9764 60.4658 26.8062 60.2957C26.8062 60.2957 26.8062 60.2957 26.6361 60.2957C26.6361 60.636 26.6361 63.3585 26.6361 63.5287C26.4659 63.6988 26.1256 63.5287 25.9555 63.6988C25.7853 63.6988 25.445 63.6988 25.1047 63.6988C24.9345 63.6988 24.7644 63.6988 24.424 63.6988C24.2539 63.6988 23.9136 63.869 23.7434 63.6988C23.7434 63.6988 23.7434 63.5287 23.7434 63.3585V63.1883C23.5733 62.6779 23.7434 61.9972 23.5733 61.6569C23.5733 61.4868 23.5733 61.3166 23.5733 61.1465C23.5733 60.9763 23.5733 60.636 23.5733 60.4658C23.5733 60.2957 23.5733 60.2957 23.5733 60.1255C23.5733 59.9554 23.5733 59.7852 23.5733 59.7852C23.5733 59.615 23.5733 58.9344 23.5733 58.7643C23.5733 58.5941 23.5733 58.5941 23.5733 58.5941C23.5733 58.5941 23.5733 58.5941 23.5733 58.4239C23.4031 58.4239 23.4031 58.5941 23.4031 58.5941C23.4031 58.7643 23.4031 58.5941 23.4031 58.7643V60.1255C23.4031 60.2957 23.4031 60.4658 23.4031 60.4658C23.2329 60.8061 23.4031 61.1465 23.2329 61.3166C23.2329 61.4868 23.2329 61.6569 23.2329 61.8271C23.2329 62.1674 23.2329 62.3376 23.2329 62.6779C23.2329 63.0182 23.2329 63.1883 23.2329 63.5287C23.2329 63.869 23.0628 63.869 22.5523 63.869C22.3822 63.869 21.8717 63.869 21.7015 63.869C21.5314 63.869 21.5314 63.869 21.3612 63.869C21.1911 63.869 21.0209 63.869 21.0209 63.869C20.6806 63.869 20.3403 64.0391 20.1701 64.0391C20.1701 63.6988 20.1701 58.0836 20.1701 57.403C20.1701 56.8925 20.1701 56.3821 20.1701 55.7014C20.1701 55.191 20.1701 54.6805 20.1701 54.17V51.6177C20.1701 50.7669 20.3403 50.7669 19.6596 50.937C19.4895 50.937 19.3193 50.937 19.1492 50.937H18.1282C18.1282 50.7669 18.1282 49.4056 18.1282 49.4056C18.2984 49.4056 18.2984 49.4056 18.4685 49.2355C18.6387 49.2355 18.6387 49.2355 18.8089 49.2355C18.979 49.2355 19.1492 49.2355 19.1492 49.2355C19.3193 49.2355 19.4895 49.2355 19.6596 49.2355C19.8298 49.2355 20.1701 49.0653 20.3403 49.2355C20.6806 49.2355 21.0209 49.2355 21.1911 49.2355H22.0418C22.3822 49.2355 23.2329 49.2355 23.5733 49.2355C23.7434 49.2355 23.9136 49.2355 24.0837 49.2355L24.424 49.4056ZM9.45022 50.7669C9.62038 50.7669 9.62038 50.7669 9.62038 50.937H9.28006C9.28006 51.2773 9.45022 51.1072 9.1099 51.1072C9.1099 51.2773 9.1099 51.2773 9.1099 51.4475L8.76959 51.2773C8.76959 51.2773 8.59943 51.1072 8.42928 51.2773C8.42928 51.4475 8.42928 51.4475 8.42928 51.4475H8.25912C8.25912 51.4475 8.25912 51.4475 8.25912 51.2773L7.91881 51.1072V50.937C7.91881 50.937 7.91881 50.937 7.74865 50.937C7.74865 50.937 7.74865 50.937 7.74865 50.7669H7.91881C7.91881 50.5967 8.08896 50.5967 8.08896 50.5967C8.08896 50.4266 7.91881 50.4266 7.91881 50.4266L7.74865 50.2564V50.0862H7.91881C8.08896 49.9161 7.91881 49.7459 8.25912 49.7459C8.25912 49.7459 8.25912 49.4056 8.42928 49.5758L8.59943 49.7459C8.76959 49.7459 8.76959 49.7459 8.93975 49.7459C8.93975 49.5758 9.1099 49.4056 9.1099 49.5758C9.1099 49.7459 9.1099 49.7459 9.1099 49.7459H9.28006C9.45022 49.9161 9.45022 49.9161 9.45022 50.0862H9.62038V50.2564C9.45022 50.2564 9.45022 50.2564 9.45022 50.2564C9.28006 50.4266 9.28006 50.4266 9.28006 50.4266C9.28006 50.5967 9.28006 50.5967 9.28006 50.5967H9.45022C9.45022 50.5967 9.45022 50.5967 9.45022 50.7669ZM2.13346 50.2564C2.30362 50.2564 2.47378 49.9161 2.47378 49.9161C2.47378 50.0862 2.47378 50.0862 2.47378 50.0862V50.2564H2.81409V50.4266H2.98425C2.98425 50.5967 2.98425 50.5967 2.81409 50.5967C2.81409 50.7669 2.81409 50.7669 2.81409 50.7669C2.64394 51.1072 2.81409 51.1072 2.81409 51.1072C2.98425 51.1072 2.81409 51.1072 2.98425 51.1072C2.98425 51.2773 2.98425 51.1072 2.98425 51.2773C2.98425 51.2773 3.15441 51.2773 2.98425 51.2773H2.81409V51.6177H2.47378C2.47378 51.7878 2.47378 51.7878 2.47378 51.7878C2.30362 51.7878 2.30362 51.6177 2.13346 51.6177C1.96331 51.6177 1.96331 51.6177 1.79315 51.7878C1.62299 51.7878 1.62299 51.7878 1.62299 51.7878V51.6177C1.28268 51.6177 1.45284 51.6177 1.45284 51.2773H1.11252C1.11252 51.2773 1.11252 51.2773 1.11252 51.1072C1.28268 51.1072 1.45284 50.937 1.45284 50.937C1.45284 50.7669 1.28268 50.7669 1.11252 50.5967C1.11252 50.5967 1.11252 50.5967 1.11252 50.4266H1.45284V50.2564H1.62299C1.62299 50.0862 1.62299 49.9161 1.79315 49.9161L1.96331 50.0862C1.96331 50.2564 1.96331 50.2564 2.13346 50.2564ZM34.4633 51.2773L34.2932 51.6177V51.2773C33.9528 51.2773 33.9528 51.2773 33.9528 51.1072C33.9528 50.937 33.9528 50.937 33.7827 51.1072C33.6125 50.937 33.6125 50.937 33.7827 50.937C33.7827 50.937 33.7827 50.7669 33.9528 50.7669C33.9528 50.5967 33.9528 50.5967 33.9528 50.4266L33.7827 50.2564C33.7827 50.2564 33.7827 50.2564 33.9528 50.2564C33.9528 50.2564 33.9528 50.0862 33.9528 49.9161H34.2932C34.2932 49.9161 34.2932 49.9161 34.2932 49.7459L34.4633 49.9161C34.8036 49.9161 34.6335 49.9161 34.9738 49.7459V49.9161C35.1439 49.9161 35.3141 49.9161 35.3141 49.9161C35.3141 50.0862 35.3141 50.0862 35.3141 50.2564H35.4843C35.6544 50.2564 35.4843 50.2564 35.4843 50.4266C35.3141 50.5967 35.3141 50.4266 35.3141 50.5967C35.3141 50.7669 35.3141 50.7669 35.3141 50.7669L35.4843 50.937H35.3141C35.3141 51.1072 35.3141 51.1072 35.3141 51.2773H34.9738V51.4475C34.8036 51.4475 34.8036 51.1072 34.4633 51.2773ZM28.678 49.4056C28.678 49.7459 28.678 49.5758 28.8481 49.5758C29.0183 49.5758 28.678 49.9161 29.0183 49.9161C29.0183 50.0862 28.8481 50.0862 28.8481 50.2564C28.8481 50.4266 29.0183 50.4266 29.0183 50.5967C28.8481 50.5967 28.8481 50.5967 28.8481 50.7669V50.937H28.678V51.1072C28.5078 51.1072 28.5078 50.937 28.3377 50.937C28.1675 50.937 28.1675 51.1072 27.9973 51.1072C27.9973 50.7669 27.9973 50.937 27.8272 50.937V50.5967H27.657C27.657 50.5967 27.657 50.5967 27.657 50.4266H27.8272C27.8272 50.2564 27.8272 50.2564 27.8272 50.0862C27.657 50.0862 27.657 50.0862 27.657 49.9161H27.4869C27.657 49.9161 27.657 49.9161 27.8272 49.9161V49.5758H27.9973V49.4056C28.1675 49.4056 28.1675 49.4056 28.1675 49.5758C28.3377 49.5758 28.1675 49.5758 28.5078 49.5758C28.5078 49.5758 28.5078 49.4056 28.678 49.4056ZM15.5759 49.2355V49.4056C15.746 49.5758 15.746 49.5758 15.9162 49.5758C15.9162 49.5758 15.9162 49.5758 16.0863 49.4056C16.0863 49.4056 16.0863 49.4056 16.2565 49.4056V49.5758H16.4267C16.4267 49.7459 16.4267 49.7459 16.4267 49.9161C16.5968 49.9161 16.5968 49.7459 16.5968 49.9161C16.4267 50.0862 16.5968 50.0862 16.4267 50.0862C16.4267 50.0862 16.4267 50.2564 16.4267 50.4266C16.5968 50.5967 16.5968 50.5967 16.5968 50.5967H16.4267V50.937H16.2565V51.1072C16.0863 51.1072 16.0863 50.937 15.9162 50.937C15.746 50.937 15.746 50.937 15.746 50.937C15.746 51.1072 15.5759 51.1072 15.5759 51.1072V50.937C15.4057 50.937 15.4057 50.937 15.4057 50.937C15.2356 50.7669 15.4057 50.5967 15.2356 50.5967H15.0654C15.0654 50.5967 15.0654 50.5967 15.2356 50.5967C15.2356 50.4266 15.2356 50.4266 15.2356 50.4266C15.4057 50.2564 15.4057 50.0862 15.2356 50.0862C15.2356 50.0862 14.8952 49.9161 15.2356 49.9161V49.5758H15.5759C15.5759 49.4056 15.4057 49.2355 15.5759 49.2355Z" fill="black"/>
<path fill-rule="evenodd" clip-rule="evenodd" d="M7.06802 38.8559L8.42928 38.6857L10.6413 38.3454L20.1701 36.9841C20.3403 36.9841 21.1911 37.1543 21.5314 37.3244L24.9345 37.8349H25.1047L26.8062 38.0051C27.8272 38.1752 29.0183 38.3454 30.0392 38.5155L31.5706 38.8559C32.9319 39.026 34.2932 39.1962 35.4843 39.3663L39.3979 40.047V44.3009V45.8323C39.0575 45.8323 38.8874 45.8323 38.7172 45.8323C38.5471 45.8323 38.5471 45.8323 38.3769 45.8323H38.2068C37.6963 45.6621 37.356 45.6621 37.0157 45.6621L35.1439 45.492C34.9738 45.492 34.8036 45.3218 34.6335 45.3218H34.4633H34.2932H33.6125C33.4424 45.3218 33.4424 45.1517 33.2722 45.1517C33.2722 45.1517 33.1021 45.1517 32.9319 45.1517C32.7617 45.1517 32.5916 45.1517 32.2513 45.1517C32.0811 45.1517 32.0811 45.1517 32.0811 45.1517C31.911 45.1517 31.7408 45.1517 31.7408 44.9815H30.3795C30.2094 44.8114 30.0392 44.8114 29.8691 44.8114C29.6989 44.8114 29.5288 44.8114 29.3586 44.8114L28.5078 44.6412H28.3377C28.1675 44.6412 28.1675 44.6412 28.1675 44.6412C27.9973 44.6412 27.8272 44.6412 27.657 44.6412C27.4869 44.6412 27.4869 44.6412 27.3167 44.6412C27.1466 44.6412 27.3167 44.6412 27.1466 44.6412C26.9764 44.471 25.9555 44.471 25.7853 44.471C25.6151 44.3009 25.1047 44.3009 24.9345 44.3009H24.0837C23.7434 44.1307 23.4031 44.1307 23.2329 44.1307C23.0628 44.1307 22.8926 44.1307 22.7225 44.1307C22.5523 44.1307 22.3822 44.1307 22.212 44.1307C22.212 43.9606 22.0418 43.9606 22.0418 43.9606H21.3612C21.1911 43.9606 21.0209 43.9606 20.8507 43.9606H20.6806C20.5104 43.7904 20.6806 43.7904 20.5104 43.7904C20.3403 43.7904 19.6596 43.9606 19.4895 43.9606C19.3193 43.9606 19.1492 43.9606 18.979 43.9606C18.8089 43.9606 18.4685 43.9606 18.1282 43.9606L17.4476 44.1307H17.2774C17.1073 44.1307 16.9371 44.1307 16.767 44.1307L16.0863 44.3009H15.9162C15.746 44.3009 15.5759 44.3009 15.4057 44.3009C15.2356 44.3009 14.7251 44.471 14.5549 44.471C14.2146 44.471 13.7041 44.471 13.3638 44.471L12.6832 44.6412C12.513 44.6412 12.1727 44.6412 11.8324 44.6412H11.6623C11.4921 44.8114 11.4921 44.8114 11.3219 44.8114H10.9816L8.76959 44.9815C8.42928 44.9815 8.42928 45.1517 8.25912 45.1517C8.08896 45.1517 8.08896 45.1517 8.08896 45.1517C7.91881 45.1517 7.91881 45.1517 7.74865 45.1517H7.06802C6.89786 45.3218 6.55755 45.1517 6.38739 45.3218C6.38739 45.3218 6.21723 45.3218 6.04708 45.3218C5.87692 45.3218 5.87692 45.3218 5.53661 45.3218L5.36645 45.492C4.85598 45.492 4.68582 45.492 4.17535 45.492L0.772208 45.8323H0.602051V45.1517V39.8768V39.7066C0.772208 39.7066 1.96331 39.5365 2.30362 39.5365L5.53661 39.026C5.70676 39.026 6.55755 38.8559 7.06802 38.8559Z" fill="black"/>
<path fill-rule="evenodd" clip-rule="evenodd" d="M24.2538 63.6987L25.9554 63.5285C26.1256 63.5285 26.4659 63.5285 26.636 63.5285C26.636 63.3584 26.636 60.2956 26.636 59.9552C26.636 58.9343 26.636 57.7432 26.636 56.5521V49.7458C26.636 49.7458 26.636 49.5757 26.4659 49.5757V51.1071C26.4659 50.9369 26.4659 49.916 26.4659 49.5757C26.4659 49.5757 26.4659 49.5757 26.2957 49.5757C25.9554 49.5757 26.1256 49.5757 25.9554 49.4055C25.9554 49.5757 25.7852 49.5757 25.9554 49.5757C25.9554 49.4055 25.9554 49.5757 25.9554 49.4055C25.6151 49.4055 25.2748 49.4055 24.9345 49.4055C24.5941 49.4055 24.2538 49.4055 23.9135 49.4055C23.7434 49.4055 22.2119 49.2354 22.0418 49.2354C21.8716 49.2354 21.7015 49.2354 21.5313 49.2354C21.3612 49.2354 21.191 49.2354 21.0208 49.2354C20.3402 49.2354 19.8297 49.2354 19.1491 49.2354C18.979 49.4055 18.8088 49.2354 18.6386 49.4055C18.4685 49.4055 18.2983 49.4055 18.1282 49.4055C18.1282 49.5757 18.1282 50.7668 18.1282 50.9369C18.4685 50.9369 18.8088 50.7668 19.1491 50.7668C19.3193 50.7668 19.4894 50.7668 19.6596 50.7668C19.8297 50.7668 19.9999 50.7668 20.1701 50.7668C20.1701 50.9369 20.1701 57.2327 20.1701 57.4029C20.3402 58.9343 20.1701 60.6359 20.1701 62.3374V63.8689H20.3402H21.7015C21.8716 63.8689 21.8716 63.8689 22.0418 63.8689L23.0627 63.6987L23.2329 61.6568C23.2329 61.4867 23.2329 61.3165 23.2329 61.3165L23.403 59.4448C23.403 59.2746 23.403 58.9343 23.403 58.594C23.403 58.4238 23.403 57.2327 23.5732 57.0626C23.5732 57.0626 23.5732 57.2327 23.5732 57.4029C23.5732 57.573 23.5732 57.573 23.5732 57.7432C23.5732 58.0835 23.5732 58.4238 23.5732 58.594C23.5732 58.7641 23.5732 58.7641 23.5732 58.7641C23.5732 59.2746 23.5732 59.7851 23.7434 60.2956C23.7434 60.6359 23.7434 60.9762 23.7434 61.1463C23.7434 61.6568 23.7434 61.9971 23.7434 62.5076V63.6987H24.2538Z" fill="#F5C322"/>
<path fill-rule="evenodd" clip-rule="evenodd" d="M8.25912 68.6334C8.25912 68.6334 8.25912 68.6334 8.42928 68.4632C8.42928 68.4632 8.42928 68.4632 8.59943 68.4632V68.2931C8.59943 68.2931 8.76959 68.2931 8.93975 68.2931V68.4632H9.10991C9.10991 68.6334 9.10991 68.6334 8.93975 68.8036C8.93975 68.8036 8.93975 68.8036 8.93975 68.9737C8.76959 68.9737 8.76959 68.9737 8.76959 69.1439H8.59943C8.59943 69.1439 8.59943 69.1439 8.59943 69.314C8.59943 69.4842 8.76959 69.4842 8.93975 69.314H9.10991V69.1439C9.28006 69.1439 9.28006 68.9737 9.28006 68.8036C9.45022 69.1439 9.28006 69.1439 9.28006 69.314C9.10991 69.4842 9.10991 69.4842 8.93975 69.4842C8.76959 69.4842 8.59943 69.4842 8.42928 69.4842L8.25912 69.314C8.25912 69.314 8.25912 69.314 8.25912 69.1439C8.25912 69.1439 8.25912 69.1439 8.25912 68.9737V68.8036C8.25912 68.8036 8.25912 69.1439 8.42928 69.1439C8.59943 69.1439 8.42928 69.1439 8.59943 68.9737C8.59943 68.9737 8.76959 68.8036 8.93975 68.8036C8.93975 68.6334 8.93975 68.8036 8.93975 68.6334C8.93975 68.4632 8.59943 68.4632 8.59943 68.4632L8.42928 68.6334C8.25912 68.6334 8.25912 68.6334 8.25912 68.6334ZM0.602051 69.1439C0.772208 69.1439 0.942365 69.1439 1.11252 69.1439L3.66488 69.4842C4.51566 69.4842 5.36645 69.4842 6.04708 69.6543C6.21723 69.6543 7.23818 69.6543 7.23818 69.6543C7.40833 69.6543 7.23818 69.6543 7.40833 69.4842L7.57849 69.314C7.74865 69.1439 7.91881 69.314 8.08896 69.314L8.25912 69.4842C8.25912 69.4842 8.25912 69.4842 8.25912 69.6543H8.08896C8.08896 69.8245 8.08896 69.8245 8.08896 69.8245L10.1308 69.9947C10.301 69.9947 10.8115 69.9947 10.8115 69.9947C11.1518 69.9947 11.6623 69.9947 12.0026 70.1648H12.1727C12.513 70.1648 12.6832 70.1648 13.0235 70.1648C13.1937 70.1648 13.1937 70.1648 13.3638 70.1648C13.3638 70.1648 13.3638 70.1648 13.534 70.1648L14.7251 70.335C14.8952 70.335 15.0654 70.335 15.2356 70.335C15.4057 70.335 15.746 70.335 15.9162 70.335C16.0863 70.335 16.2565 70.335 16.5968 70.335C16.767 70.335 16.9371 70.335 17.1073 70.335L18.1282 70.5051C18.2984 70.5051 18.1282 70.5051 18.2984 70.5051C18.4685 70.5051 18.8089 70.5051 18.979 70.5051C19.1492 70.5051 19.3193 70.5051 19.6596 70.5051H19.8298C20 70.5051 20.1701 70.6753 20.1701 70.6753C20.1701 70.335 20.1701 69.6543 20.1701 69.6543C20.1701 69.4842 20.1701 69.6543 20.1701 69.4842C20.1701 69.4842 20.1701 69.4842 20.1701 69.314V68.4632C20.1701 68.2931 20.1701 68.2931 20.1701 68.2931V67.7826C20.1701 67.6124 20.1701 67.6124 20.1701 67.4423C20.1701 67.2721 20.1701 67.2721 20.1701 67.102C20.3403 67.102 20.8507 67.102 21.0209 67.102C21.1911 67.102 21.3612 67.102 21.5314 67.102C21.7015 67.102 21.8717 67.102 22.0418 67.102C22.0418 67.102 22.212 67.102 22.3822 66.9318C22.3822 66.9318 22.5523 67.102 22.5523 66.9318C22.3822 66.9318 22.0418 66.9318 21.8717 66.9318C21.7015 67.102 21.3612 67.102 21.1911 67.102H20.1701C20 67.102 19.8298 67.102 19.8298 67.102C19.4895 67.102 19.3193 67.102 18.979 67.102C18.8089 67.102 18.6387 67.102 18.2984 67.102C18.2984 66.9318 18.2984 66.9318 18.1282 66.9318C18.1282 66.9318 18.1282 66.9318 17.9581 66.9318C17.6178 66.9318 17.4476 66.9318 16.9371 66.9318C16.767 66.9318 16.5968 66.9318 16.2565 66.9318C16.2565 66.9318 16.0863 66.7617 15.9162 66.7617H15.2356C15.2356 66.7617 15.0654 66.7617 14.8952 66.7617C14.7251 66.7617 14.5549 66.7617 14.2146 66.7617C13.8743 66.5915 12.513 66.5915 12.1727 66.5915H12.0026C11.8324 66.5915 11.8324 66.4213 11.4921 66.4213C11.3219 66.4213 11.3219 66.4213 11.1518 66.4213C10.8115 66.4213 10.4712 66.4213 10.1308 66.4213L8.76959 66.2512C8.59943 66.2512 8.25912 66.2512 8.08896 66.2512H7.91881C7.74865 66.2512 7.74865 66.2512 7.74865 66.2512C7.74865 66.081 7.57849 66.081 7.40833 66.081H6.38739C6.21723 66.081 5.87692 66.081 5.70676 66.081L4.34551 65.9109C4.00519 65.9109 3.32456 65.9109 2.98425 65.7407C2.81409 65.7407 2.81409 65.7407 2.64394 65.7407C2.47378 65.7407 2.13346 65.7407 1.96331 65.7407C1.62299 65.7407 1.62299 65.7407 1.28268 65.7407C1.11252 65.5706 1.11252 65.5706 0.942365 65.5706H0.602051C0.602051 65.7407 0.602051 65.7407 0.602051 65.7407C0.602051 65.9109 0.602051 65.9109 0.602051 66.081V69.1439Z" fill="#A04F29"/>
<path fill-rule="evenodd" clip-rule="evenodd" d="M22.7225 70.5051C22.5523 70.5051 22.5523 70.5051 22.3822 70.5051C22.3822 70.5051 22.5523 70.5051 22.3822 70.3349C22.3822 70.3349 22.3822 70.5051 22.3822 70.3349C22.212 70.1647 22.212 70.1647 22.212 70.1647C22.5523 69.9946 22.3822 70.1647 22.3822 69.9946C22.3822 69.8244 22.5523 69.8244 22.5523 69.9946C22.5523 69.9946 22.5523 70.1647 22.5523 70.3349C22.5523 70.3349 22.7225 70.3349 22.7225 70.5051ZM20.1701 70.6752C20.1701 70.6752 20 70.5051 19.8298 70.5051H19.6597C19.3194 70.5051 19.1492 70.5051 18.979 70.5051C18.8089 70.5051 18.4686 70.5051 18.2984 70.5051C18.1283 70.5051 18.2984 70.5051 18.1283 70.5051L17.1073 70.3349C16.9372 70.3349 16.767 70.3349 16.5969 70.3349C16.2565 70.3349 16.0864 70.3349 15.9162 70.3349C15.7461 70.3349 15.4058 70.3349 15.2356 70.3349C15.2356 70.3349 15.2356 70.3349 15.4058 70.3349L17.2775 70.5051C17.4476 70.5051 17.4476 70.5051 17.4476 70.5051H18.1283C18.2984 70.5051 18.2984 70.5051 18.2984 70.5051C18.4686 70.5051 18.4686 70.5051 18.4686 70.5051C18.6387 70.5051 18.8089 70.5051 18.979 70.5051C19.3194 70.6752 19.6597 70.5051 20 70.6752H20.1701C20.1701 70.6752 20.1701 70.6752 20.3403 70.6752L20.8508 70.5051C21.0209 70.5051 21.1911 70.5051 21.3612 70.5051C21.5314 70.5051 22.0419 70.5051 22.0419 70.5051C22.212 70.5051 22.0419 70.5051 22.212 70.5051C22.212 70.5051 22.5523 70.5051 22.7225 70.5051C22.8927 70.5051 22.8927 70.5051 22.8927 70.5051L23.7434 70.3349C23.9136 70.3349 24.0838 70.3349 24.2539 70.3349H25.1047C25.1047 70.3349 25.2749 70.3349 25.445 70.3349C25.6152 70.3349 25.7853 70.3349 25.9555 70.3349C26.1256 70.3349 26.466 70.1647 26.6361 70.1647C26.8063 70.1647 26.9764 70.1647 27.1466 70.1647C27.4869 70.1647 27.9974 70.1647 28.3377 70.1647C28.5078 70.1647 28.678 69.9946 28.8482 69.9946H29.1885C29.1885 69.9946 29.1885 69.1438 29.1885 68.9736H28.8482C28.678 68.9736 28.5078 68.9736 28.3377 68.9736C28.1675 68.9736 27.8272 68.9736 27.6571 69.1438C27.4869 69.1438 27.4869 69.1438 27.4869 69.1438H26.9764C26.8063 69.1438 26.6361 69.1438 26.466 69.1438C26.2958 69.1438 25.6152 69.1438 25.6152 69.3139C25.6152 69.3139 25.6152 69.9946 25.6152 70.1647H25.445V69.3139C25.445 69.1438 25.1047 69.3139 24.9345 69.3139C24.9345 69.3139 24.7644 69.3139 24.5942 69.3139C24.5942 69.4841 24.5942 69.4841 24.4241 69.4841C24.2539 69.6543 24.0838 69.4841 23.9136 69.4841C23.9136 69.3139 23.9136 69.3139 23.7434 69.3139C23.7434 69.4841 23.7434 69.4841 23.7434 69.4841C23.5733 69.6543 23.5733 69.6543 23.5733 69.6543C23.4031 69.8244 23.4031 69.8244 23.4031 69.8244L23.233 69.9946C23.0628 70.1647 23.0628 70.1647 23.233 70.3349H23.4031C23.5733 70.3349 23.5733 70.1647 23.5733 70.1647C23.7434 70.1647 23.5733 70.1647 23.7434 70.1647V69.9946C23.9136 69.8244 23.7434 69.6543 23.9136 69.6543C23.9136 69.6543 23.9136 69.8244 23.9136 69.9946L23.7434 70.1647V70.3349C23.5733 70.3349 23.233 70.5051 23.0628 70.3349H22.8927V70.1647L22.7225 69.9946C22.7225 69.8244 22.7225 69.6543 22.7225 69.6543C22.7225 69.6543 22.7225 69.6543 22.8927 69.6543C22.8927 69.4841 22.8927 69.6543 22.8927 69.4841C22.7225 69.4841 22.5523 69.4841 22.3822 69.4841H22.0419V70.1647L22.212 70.3349L22.0419 70.5051H21.8717C21.8717 70.3349 21.7016 70.3349 21.7016 70.1647C21.8717 70.1647 21.8717 70.1647 21.8717 70.3349C21.8717 70.3349 21.8717 70.3349 22.0419 70.3349C22.0419 70.3349 22.0419 69.6543 22.0419 69.4841C21.5314 69.4841 21.1911 69.4841 20.8508 69.4841C20.6806 69.4841 20.6806 69.6543 20.6806 69.6543C20.6806 69.6543 20.1701 69.4841 20.1701 69.6543V70.3349C20.1701 70.5051 20.1701 70.5051 20.1701 70.6752Z" fill="#E98F51"/>
<path fill-rule="evenodd" clip-rule="evenodd" d="M22.5524 66.9319C22.5524 67.102 22.3822 66.9319 22.3822 66.9319C22.212 67.102 22.0419 67.102 22.0419 67.102V67.9528C22.0419 68.2931 21.8717 68.123 22.8927 68.123C23.0628 68.123 23.0628 68.123 23.233 68.123C23.4031 68.123 23.5733 68.123 23.7435 68.123C23.9136 68.123 24.0838 68.123 24.2539 68.123C24.4241 68.123 24.5942 67.9528 24.5942 67.9528H25.2749C25.445 67.9528 25.445 67.9528 25.445 67.9528C25.445 67.7827 25.445 67.7827 25.445 67.6125C25.445 67.6125 25.445 67.2722 25.445 67.102V66.9319C25.445 66.7617 25.6152 66.7617 25.6152 66.7617V67.6125C25.6152 67.7827 25.6152 67.7827 25.6152 67.9528C25.7853 67.9528 25.9555 67.9528 25.9555 67.9528L26.9764 67.7827C27.1466 67.7827 27.3167 67.7827 27.4869 67.7827C27.4869 67.7827 27.6571 67.7827 27.8272 67.7827C28.3377 67.7827 28.3377 67.7827 28.8482 67.7827H29.1885C29.1885 67.7827 29.1885 67.7827 29.1885 67.6125C29.1885 67.6125 29.1885 66.7617 29.1885 66.5916C29.0183 66.5916 28.678 66.5916 28.3377 66.5916C28.1675 66.5916 26.8063 66.7617 26.466 66.7617C26.466 66.7617 26.1257 66.7617 25.9555 66.7617H25.445C25.445 66.7617 25.2749 66.7617 25.1047 66.9319H23.4031C23.233 66.9319 22.7225 67.102 22.5524 66.9319Z" fill="#EA8F4E"/>
<path fill-rule="evenodd" clip-rule="evenodd" d="M23.0628 69.9947C22.8927 69.9947 23.0628 69.9947 22.8927 69.9947C22.8927 69.9947 22.8927 69.8245 22.8927 69.6544C22.8927 69.6544 22.8927 69.6544 23.0628 69.4842C23.233 69.4842 23.7435 69.314 23.5733 69.4842L23.0628 69.9947ZM23.9136 69.1439C23.7435 68.9737 23.7435 68.9737 23.7435 68.9737C23.7435 68.8036 23.9136 68.6334 23.9136 68.6334H24.0838C24.0838 68.4633 24.2539 68.4633 24.2539 68.6334C24.2539 68.6334 24.2539 68.9737 24.0838 68.9737C23.9136 69.1439 24.0838 69.1439 23.9136 69.1439ZM27.8272 68.9737C27.6571 68.8036 27.6571 68.2931 27.6571 68.1229C27.6571 68.1229 27.6571 67.9528 27.8272 67.9528L29.8691 67.7826C30.2094 67.7826 30.8901 67.6125 31.0602 67.6125V68.8036C30.8901 68.8036 30.7199 68.8036 30.7199 68.8036H29.3586C29.1885 68.8036 29.1885 68.8036 29.0183 68.8036C28.8482 68.9737 28.678 68.9737 28.5079 68.9737C28.3377 68.9737 28.1675 68.9737 27.9974 68.9737C27.8272 68.9737 27.8272 68.9737 27.8272 68.9737ZM24.2539 68.1229C24.4241 68.1229 24.5943 68.1229 24.7644 68.1229L26.466 67.9528C26.8063 67.9528 26.9765 67.9528 27.3168 67.9528C27.3168 67.9528 27.4869 67.9528 27.6571 67.9528V68.9737C27.6571 68.9737 27.6571 68.9737 27.4869 68.9737H26.9765C26.6361 69.1439 26.466 68.9737 26.1257 69.1439C26.1257 69.1439 25.9555 69.1439 25.7854 69.1439C25.6152 69.1439 25.6152 69.1439 25.445 69.1439C25.445 69.1439 24.9346 69.1439 24.7644 69.1439C24.7644 68.9737 24.7644 69.1439 24.7644 68.9737V68.8036C24.5943 68.8036 24.5943 68.9737 24.7644 69.1439C24.5943 69.1439 24.4241 69.1439 24.2539 69.1439C24.2539 69.1439 24.2539 68.9737 24.2539 68.8036C24.4241 68.8036 24.4241 68.8036 24.4241 68.8036C24.5943 68.6334 24.4241 68.8036 24.5943 68.6334C24.5943 68.6334 24.7644 68.4633 24.4241 68.4633C24.4241 68.2931 24.4241 68.2931 24.2539 68.2931C24.2539 68.2931 24.2539 68.2931 24.2539 68.1229ZM23.7435 69.314C23.4032 69.314 23.233 69.314 23.0628 69.314C22.8927 69.314 22.5524 69.314 22.3822 69.314C22.0419 69.314 22.0419 69.314 22.0419 69.314C22.0419 69.314 21.8717 69.314 21.7016 69.314C21.5314 69.4842 21.7016 69.4842 21.3613 69.4842C21.3613 69.4842 21.1911 69.4842 21.021 69.4842V68.4633C21.1911 68.2931 21.5314 68.2931 21.8717 68.2931C21.8717 68.2931 22.0419 68.2931 22.2121 68.2931C22.3822 68.2931 22.3822 68.2931 22.5524 68.2931C22.7225 68.2931 22.8927 68.2931 22.8927 68.2931C23.0628 68.2931 23.233 68.2931 23.4032 68.2931C23.5733 68.2931 23.5733 68.1229 23.7435 68.1229H24.2539C24.2539 68.4633 24.0838 68.2931 23.9136 68.4633L23.7435 68.6334C23.5733 68.8036 23.5733 68.9737 23.7435 68.9737C23.7435 69.1439 23.7435 69.1439 23.7435 69.314ZM34.6335 67.4423C34.8037 67.4423 36.1649 67.2721 36.3351 67.2721C36.5052 67.2721 36.5052 67.2721 36.6754 67.2721C36.8456 67.2721 37.1859 67.2721 37.5262 67.2721C37.6963 67.2721 37.8665 67.2721 38.0367 67.102C38.2068 67.102 38.2068 67.2721 38.2068 67.2721C38.0367 67.6125 38.2068 68.1229 38.0367 68.2931C38.0367 68.2931 38.0367 68.2931 37.8665 68.2931H37.6963C37.356 68.2931 37.1859 68.2931 36.8456 68.2931L35.9948 68.4633C35.8246 68.4633 35.6545 68.4633 35.4843 68.4633C35.3141 68.4633 34.9738 68.4633 34.6335 68.4633V67.4423ZM31.2304 67.6125C31.4005 67.6125 31.7408 67.6125 32.0812 67.6125C32.2513 67.6125 32.5916 67.6125 32.9319 67.6125C33.1021 67.4423 33.2723 67.6125 33.7827 67.4423C33.9529 67.4423 33.9529 67.4423 34.123 67.4423C34.2932 67.4423 34.4634 67.4423 34.6335 67.4423V68.4633C34.4634 68.4633 34.2932 68.4633 34.123 68.4633C33.9529 68.4633 33.7827 68.4633 33.7827 68.6334C33.6126 68.6334 33.1021 68.6334 32.9319 68.6334C32.7618 68.6334 32.5916 68.6334 32.4215 68.6334C32.2513 68.6334 32.0812 68.6334 32.0812 68.6334C31.911 68.6334 31.7408 68.6334 31.5707 68.6334C31.4005 68.6334 31.2304 68.8036 31.2304 68.6334V67.6125ZM36.5052 66.081H36.6754C36.6754 66.4214 36.6754 66.9318 36.6754 67.102C36.5052 67.2721 36.3351 67.2721 36.1649 67.2721C35.9948 67.2721 35.9948 67.2721 35.8246 67.2721C35.6545 67.2721 35.4843 67.2721 35.3141 67.2721C35.3141 67.2721 35.144 67.2721 34.9738 67.2721C34.8037 67.2721 34.8037 67.2721 34.6335 67.2721C34.2932 67.2721 33.6126 67.4423 33.4424 67.4423C33.4424 67.2721 33.4424 67.102 33.4424 66.9318C33.4424 66.7617 33.2723 66.4214 33.4424 66.2512C33.1021 66.2512 32.9319 66.2512 32.5916 66.4214C32.4215 66.4214 32.0812 66.4214 31.911 66.4214C31.5707 66.4214 31.2304 66.4214 30.8901 66.4214H30.5497C30.7199 66.5915 31.2304 66.4214 31.2304 66.4214H33.1021C33.1021 66.4214 33.1021 66.2512 33.2723 66.2512C33.2723 66.5915 33.2723 67.2721 33.2723 67.4423C32.7618 67.4423 32.2513 67.4423 31.7408 67.4423C31.5707 67.6125 31.4005 67.6125 31.2304 67.6125C31.0602 67.6125 30.8901 67.6125 30.7199 67.6125C30.5497 67.6125 30.5497 67.6125 30.2094 67.6125C30.0393 67.6125 29.3586 67.7826 29.3586 67.6125V66.5915C29.5288 66.5915 30.2094 66.5915 30.3796 66.5915V66.4214H30.5497C30.2094 66.4214 29.8691 66.5915 29.5288 66.5915C29.3586 66.5915 29.1885 66.5915 29.0183 66.5915C28.678 66.5915 26.8063 66.7617 26.466 66.7617C26.466 66.7617 26.1257 66.7617 25.9555 66.7617H25.7854H25.6152C25.2749 66.7617 24.9346 66.7617 24.5943 66.7617C24.4241 66.9318 24.2539 66.9318 24.0838 66.9318C23.9136 66.9318 23.7435 66.9318 23.5733 66.9318H22.5524C22.7225 67.102 23.233 66.9318 23.4032 66.9318H25.1047C25.2749 66.7617 25.445 66.7617 25.445 66.7617H25.9555C26.1257 66.7617 26.466 66.7617 26.466 66.7617C26.8063 66.7617 28.1675 66.5915 28.3377 66.5915C28.678 66.5915 29.0183 66.5915 29.1885 66.5915C29.1885 66.7617 29.1885 67.6125 29.1885 67.6125C29.1885 67.7826 29.1885 67.7826 29.1885 67.7826H28.8482C28.3377 67.7826 28.3377 67.7826 27.8272 67.7826C27.6571 67.7826 27.4869 67.7826 27.4869 67.7826C27.3168 67.7826 27.1466 67.7826 26.9765 67.7826L25.9555 67.9528C25.9555 67.9528 25.7854 67.9528 25.6152 67.9528C25.6152 67.7826 25.6152 67.7826 25.6152 67.6125V66.7617C25.6152 66.7617 25.445 66.7617 25.445 66.9318V67.102C25.445 67.2721 25.445 67.6125 25.445 67.6125C25.445 67.7826 25.445 67.7826 25.445 67.9528C25.445 67.9528 25.445 67.9528 25.2749 67.9528H24.5943C24.5943 67.9528 24.4241 68.1229 24.2539 68.1229C24.0838 68.1229 23.9136 68.1229 23.7435 68.1229C23.5733 68.1229 23.4032 68.1229 23.233 68.1229C23.0628 68.1229 23.0628 68.1229 22.8927 68.1229C21.8717 68.1229 22.0419 68.2931 22.0419 67.9528V67.102V68.2931C21.8717 68.2931 21.7016 68.2931 21.5314 68.2931C21.3613 68.2931 21.1911 68.2931 21.021 68.2931H20.6806C20.5105 68.2931 20.3403 68.2931 20.1702 68.2931V67.102C20.1702 67.2721 20.1702 67.2721 20.1702 67.4423C20.1702 67.6125 20.1702 67.6125 20.1702 67.7826V68.2931C20.1702 68.2931 20.1702 68.2931 20.1702 68.4633V69.314C20.1702 69.4842 20.1702 69.4842 20.1702 69.4842V69.314V68.4633C20.3403 68.4633 20.8508 68.2931 21.021 68.4633V69.4842C20.8508 69.4842 20.6806 69.4842 20.5105 69.4842C20.5105 69.4842 20.5105 69.4842 20.3403 69.4842C20.3403 69.4842 20.3403 69.4842 20.1702 69.4842C20.1702 69.6544 20.1702 69.4842 20.1702 69.6544C20.1702 69.6544 20.1702 70.335 20.1702 70.6753C20.1702 70.5051 20.1702 70.5051 20.1702 70.335V69.6544C20.1702 69.4842 20.6806 69.6544 20.6806 69.6544C20.6806 69.6544 20.6806 69.4842 20.8508 69.4842C21.1911 69.4842 21.5314 69.4842 22.0419 69.4842C22.0419 69.6544 22.0419 70.335 22.0419 70.335C21.8717 70.335 21.8717 70.335 21.8717 70.335C21.8717 70.1648 21.8717 70.1648 21.7016 70.1648C21.7016 70.335 21.8717 70.335 21.8717 70.5051H22.0419L22.2121 70.335L22.0419 70.1648V69.4842H22.3822C22.5524 69.4842 22.7225 69.4842 22.8927 69.4842C22.8927 69.6544 22.8927 69.4842 22.8927 69.6544C22.7225 69.6544 22.7225 69.6544 22.7225 69.6544C22.7225 69.6544 22.7225 69.8245 22.7225 69.9947L22.8927 70.1648V70.335H23.0628C23.233 70.5051 23.5733 70.335 23.7435 70.335V70.1648L23.9136 69.9947C23.9136 69.8245 23.9136 69.6544 23.9136 69.6544C23.7435 69.6544 23.9136 69.8245 23.7435 69.9947V70.1648C23.5733 70.1648 23.7435 70.1648 23.5733 70.1648C23.5733 70.1648 23.5733 70.335 23.4032 70.335H23.233C23.0628 70.1648 23.0628 70.1648 23.233 69.9947L23.4032 69.8245C23.4032 69.8245 23.4032 69.8245 23.5733 69.6544C23.5733 69.6544 23.5733 69.6544 23.7435 69.4842C23.7435 69.4842 23.7435 69.4842 23.7435 69.314C23.9136 69.314 23.9136 69.314 23.9136 69.4842C24.0838 69.4842 24.2539 69.6544 24.4241 69.4842C24.5943 69.4842 24.5943 69.4842 24.5943 69.314C24.7644 69.314 24.9346 69.314 24.9346 69.314C25.1047 69.314 25.445 69.1439 25.445 69.314V70.1648H25.6152C25.6152 69.9947 25.6152 69.314 25.6152 69.314C25.6152 69.1439 26.2958 69.1439 26.466 69.1439C26.6361 69.1439 26.8063 69.1439 26.9765 69.1439H27.4869C27.4869 69.1439 27.4869 69.1439 27.6571 69.1439C27.8272 68.9737 28.1675 68.9737 28.3377 68.9737C28.5079 68.9737 28.678 68.9737 28.8482 68.9737H29.1885C29.1885 69.1439 29.1885 69.9947 29.1885 69.9947H29.3586C29.3586 69.8245 29.3586 69.1439 29.3586 68.9737C29.5288 68.9737 29.699 68.9737 29.8691 68.9737C30.0393 68.9737 30.2094 68.9737 30.3796 68.8036C30.5497 68.8036 30.5497 68.8036 30.7199 68.8036C30.8901 68.8036 31.2304 68.8036 31.2304 68.8036H32.2513C32.4215 68.8036 32.5916 68.8036 32.7618 68.6334C32.9319 68.6334 33.1021 68.6334 33.2723 68.6334V69.6544C33.4424 69.4842 33.2723 68.6334 33.4424 68.6334H33.6126C33.7827 68.6334 33.9529 68.6334 34.123 68.6334C34.2932 68.6334 34.4634 68.6334 34.6335 68.6334C34.6335 68.6334 34.8037 68.6334 34.9738 68.6334C35.144 68.4633 35.6545 68.4633 35.8246 68.4633C35.9948 68.4633 36.5052 68.4633 36.6754 68.4633V68.6334V69.314V68.4633H36.8456H37.356C37.5262 68.4633 37.5262 68.2931 37.6963 68.2931C37.8665 68.2931 37.8665 68.2931 38.0367 68.2931C38.377 68.2931 38.8874 68.2931 39.3979 68.2931V68.1229C39.0576 68.1229 38.8874 68.1229 38.7173 68.1229H38.5471C38.377 68.1229 38.377 68.2931 38.2068 68.2931C38.2068 68.1229 38.2068 67.2721 38.2068 67.102C38.377 67.102 38.7173 67.102 38.7173 67.102C38.8874 67.102 38.8874 67.102 39.0576 67.102C39.0576 67.102 39.2278 67.102 39.3979 67.102V66.9318C39.0576 66.9318 38.8874 67.102 38.7173 67.102C38.377 67.102 38.2068 67.102 38.0367 67.102C37.8665 67.102 37.6963 67.102 37.6963 67.102C37.5262 67.102 37.5262 67.102 37.356 67.102H36.6754C36.6754 66.9318 36.6754 66.4214 36.6754 66.081C36.8456 66.081 37.0157 66.081 37.1859 66.081H37.5262C37.5262 66.081 37.5262 66.081 37.6963 66.081H38.5471C38.5471 66.081 38.5471 66.081 38.5471 65.9109C38.377 65.9109 38.2068 65.9109 38.0367 66.081H36.5052Z" fill="#C46D34"/>
<path fill-rule="evenodd" clip-rule="evenodd" d="M30.5497 66.4214H30.3796V66.5915C30.2094 66.5915 29.5288 66.5915 29.3586 66.5915V67.6125C29.3586 67.7826 30.0393 67.6125 30.2094 67.6125C30.5497 67.6125 30.5497 67.6125 30.7199 67.6125C30.8901 67.6125 31.0602 67.6125 31.2304 67.6125C31.4005 67.6125 31.5707 67.6125 31.7408 67.4423C32.2513 67.4423 32.7618 67.4423 33.2722 67.4423C33.2722 67.2722 33.2722 66.5915 33.2722 66.2512C33.1021 66.2512 33.1021 66.4214 33.1021 66.4214H31.2304C31.2304 66.4214 30.7199 66.5915 30.5497 66.4214Z" fill="#EA8F4E"/>
<path fill-rule="evenodd" clip-rule="evenodd" d="M29.3586 69.9946C29.5288 69.9946 30.3796 69.9946 30.7199 69.8244H31.5707H31.7408L33.2722 69.6542V68.6333C33.1021 68.6333 32.9319 68.6333 32.7618 68.6333C32.5916 68.8035 32.4215 68.8035 32.2513 68.8035H31.2304C31.2304 68.8035 30.8901 68.8035 30.7199 68.8035C30.5497 68.8035 30.5497 68.8035 30.3796 68.8035C30.2094 68.9736 30.0393 68.9736 29.8691 68.9736C29.699 68.9736 29.5288 68.9736 29.3586 68.9736C29.3586 69.1438 29.3586 69.8244 29.3586 69.9946Z" fill="#EA8F4E"/>
<path fill-rule="evenodd" clip-rule="evenodd" d="M34.6334 67.4424V68.4633C34.9737 68.4633 35.3141 68.4633 35.4842 68.4633C35.6544 68.4633 35.8245 68.4633 35.9947 68.4633L36.8455 68.2932C37.1858 68.2932 37.3559 68.2932 37.6963 68.2932H37.8664C38.0366 68.2932 38.0366 68.2932 38.0366 68.2932C38.2067 68.123 38.0366 67.6125 38.2067 67.2722C38.2067 67.2722 38.2067 67.1021 38.0366 67.1021C37.8664 67.2722 37.6963 67.2722 37.5261 67.2722C37.1858 67.2722 36.8455 67.2722 36.6753 67.2722C36.5052 67.2722 36.5052 67.2722 36.335 67.2722C36.1648 67.2722 34.8036 67.4424 34.6334 67.4424Z" fill="#EA8F4E"/>
<path fill-rule="evenodd" clip-rule="evenodd" d="M31.2303 67.6125V68.6335C31.2303 68.8036 31.4005 68.6335 31.5707 68.6335C31.7408 68.6335 31.911 68.6335 32.0811 68.6335C32.0811 68.6335 32.2513 68.6335 32.4214 68.6335C32.5916 68.6335 32.7618 68.6335 32.9319 68.6335C33.1021 68.6335 33.6125 68.6335 33.7827 68.6335C33.7827 68.4633 33.9529 68.4633 34.123 68.4633C34.2932 68.4633 34.4633 68.4633 34.6335 68.4633V67.4424C34.4633 67.4424 34.2932 67.4424 34.123 67.4424C33.9529 67.4424 33.9529 67.4424 33.7827 67.4424C33.2722 67.6125 33.1021 67.4424 32.9319 67.6125C32.5916 67.6125 32.2513 67.6125 32.0811 67.6125C31.7408 67.6125 31.4005 67.6125 31.2303 67.6125Z" fill="#EA8F4E"/>
<path fill-rule="evenodd" clip-rule="evenodd" d="M33.4423 66.2512C33.2722 66.4214 33.4423 66.7617 33.4423 66.9318C33.4423 67.102 33.4423 67.2722 33.4423 67.4423C33.6125 67.4423 34.2931 67.2722 34.6334 67.2722C34.8036 67.2722 34.8036 67.2722 34.9737 67.2722C35.1439 67.2722 35.3141 67.2722 35.3141 67.2722C35.4842 67.2722 35.6544 67.2722 35.8245 67.2722C35.9947 67.2722 35.9947 67.2722 36.1649 67.2722C36.335 67.2722 36.5052 67.2722 36.6753 67.102C36.6753 66.9318 36.6753 66.4214 36.6753 66.0811H36.5052C36.335 66.0811 33.4423 66.2512 33.4423 66.2512Z" fill="#EA8F4E"/>
<path fill-rule="evenodd" clip-rule="evenodd" d="M27.8271 68.9736C27.8271 68.9736 27.8271 68.9736 27.9973 68.9736C28.1675 68.9736 28.3376 68.9736 28.5078 68.9736C28.6779 68.9736 28.8481 68.9736 29.0182 68.8034C29.1884 68.8034 29.1884 68.8034 29.3586 68.8034H30.7198C30.7198 68.8034 30.89 68.8034 31.0601 68.8034V67.6123C30.89 67.6123 30.2093 67.7825 29.869 67.7825L27.8271 67.9526C27.657 67.9526 27.657 68.1228 27.657 68.1228C27.657 68.2929 27.657 68.8034 27.8271 68.9736Z" fill="#EA8F4E"/>
<path fill-rule="evenodd" clip-rule="evenodd" d="M30.0392 49.7458C30.0392 50.0862 30.0392 50.4265 30.0392 50.7668C30.0392 51.2773 30.0392 51.1071 30.3795 51.1071C30.5497 51.1071 30.7198 51.2773 30.89 51.2773C31.0601 51.2773 31.2303 51.2773 31.4004 51.2773H32.0811H32.4214C32.4214 51.1071 32.4214 49.916 32.4214 49.916H32.0811C31.9109 49.916 31.9109 49.916 31.9109 49.916H31.4004C31.4004 49.916 31.4004 49.916 31.2303 49.7458C31.0601 49.7458 30.5497 49.7458 30.3795 49.7458C30.2093 49.7458 30.2093 49.7458 30.0392 49.7458Z" fill="#F4B21A"/>
<path fill-rule="evenodd" clip-rule="evenodd" d="M24.2539 68.1228C24.2539 68.2929 24.2539 68.2929 24.2539 68.2929C24.4241 68.2929 24.4241 68.2929 24.4241 68.4631C24.7644 68.4631 24.5942 68.6333 24.5942 68.6333C24.4241 68.8034 24.5942 68.6333 24.4241 68.8034C24.4241 68.8034 24.4241 68.8034 24.2539 68.8034C24.2539 68.9736 24.2539 69.1437 24.2539 69.1437C24.4241 69.1437 24.5942 69.1437 24.7644 69.1437C24.5942 68.9736 24.5942 68.8034 24.7644 68.8034V68.9736C24.7644 69.1437 24.7644 68.9736 24.7644 69.1437C24.9345 69.1437 25.445 69.1437 25.445 69.1437C25.6152 69.1437 25.6152 69.1437 25.7853 69.1437C25.9555 69.1437 26.1256 69.1437 26.1256 69.1437C26.4659 68.9736 26.6361 69.1437 26.9764 68.9736H27.4869C27.657 68.9736 27.657 68.9736 27.657 68.9736V67.9526C27.4869 67.9526 27.3167 67.9526 27.3167 67.9526C26.9764 67.9526 26.8063 67.9526 26.4659 67.9526L24.7644 68.1228C24.5942 68.1228 24.4241 68.1228 24.2539 68.1228Z" fill="#EB8F4C"/>
<path fill-rule="evenodd" clip-rule="evenodd" d="M5.02618 49.916C5.02618 50.0862 5.02618 50.0862 5.02618 50.0862H4.68587C4.51571 50.0862 3.83508 49.916 3.83508 50.0862C3.83508 50.0862 3.83508 51.2773 3.83508 51.4474C4.68587 51.4474 4.34555 51.4474 4.68587 51.4474L5.02618 51.2773C5.19634 51.2773 5.70681 51.2773 5.87697 51.2773C6.04712 51.2773 6.04712 51.2773 6.21728 51.2773C6.21728 51.1071 6.21728 49.916 6.21728 49.916H5.53665C5.3665 49.916 5.02618 49.916 5.02618 49.916Z" fill="#F4B21A"/>
<path fill-rule="evenodd" clip-rule="evenodd" d="M33.2722 69.6542C33.4424 69.6542 33.4424 69.6542 33.4424 69.6542L36.6754 69.3139V68.6333V68.4631C36.5052 68.4631 35.9947 68.4631 35.8246 68.4631C35.6544 68.4631 35.144 68.4631 34.9738 68.6333C34.8036 68.6333 34.6335 68.6333 34.6335 68.6333C34.4633 68.6333 34.2932 68.6333 34.123 68.6333C33.9528 68.6333 33.7827 68.6333 33.6125 68.6333H33.4424C33.2722 68.6333 33.4424 69.4841 33.2722 69.6542Z" fill="#EA8F4E"/>
<path fill-rule="evenodd" clip-rule="evenodd" d="M39.3978 51.6176V50.2563C39.0575 50.2563 38.8873 50.2563 38.7172 50.2563C38.547 50.2563 38.3769 50.2563 38.2067 50.2563C38.0366 50.2563 37.8664 50.2563 37.6963 50.2563C37.5261 50.2563 37.5261 50.0862 37.3559 50.0862C37.3559 50.0862 37.1858 50.0862 37.0156 50.0862V51.4474C37.0156 51.4474 37.0156 51.4474 37.1858 51.6176H37.8664C38.3769 51.6176 38.3769 51.6176 38.3769 51.6176H39.3978Z" fill="#F4B21A"/>
<path fill-rule="evenodd" clip-rule="evenodd" d="M23.7434 69.3139C23.7434 69.1438 23.7434 69.1438 23.7434 68.9736C23.5732 68.9736 23.5732 68.8034 23.7434 68.6333L23.9135 68.4631C24.0837 68.293 24.2539 68.4631 24.2539 68.1228H23.7434C23.5732 68.1228 23.5732 68.293 23.4031 68.293C23.2329 68.293 23.0628 68.293 22.8926 68.293C22.8926 68.293 22.7224 68.293 22.5523 68.293C22.3821 68.293 22.3821 68.293 22.212 68.293C22.0418 68.293 21.8717 68.293 21.8717 68.293C21.5313 68.293 21.191 68.293 21.0209 68.4631V69.4841C21.191 69.4841 21.3612 69.4841 21.3612 69.4841C21.7015 69.4841 21.5313 69.4841 21.7015 69.3139C21.8717 69.3139 22.0418 69.3139 22.0418 69.3139C22.0418 69.3139 22.0418 69.3139 22.3821 69.3139C22.5523 69.3139 22.8926 69.3139 23.0628 69.3139C23.2329 69.3139 23.4031 69.3139 23.7434 69.3139Z" fill="#EB8F4C"/>
<path fill-rule="evenodd" clip-rule="evenodd" d="M38.5471 65.9109C38.5471 66.081 38.5471 66.081 38.5471 66.081H37.6964C37.5262 66.081 37.5262 66.081 37.5262 66.081H37.1859C37.0157 66.081 36.8456 66.081 36.6754 66.081C36.6754 66.4214 36.6754 66.9318 36.6754 67.102H37.356C37.5262 67.102 37.5262 67.102 37.6964 67.102C37.6964 67.102 37.8665 67.102 38.0367 67.102C38.2068 67.102 38.377 67.102 38.7173 67.102C38.8874 67.102 39.0576 66.9318 39.3979 66.9318V65.9109C39.0576 65.9109 38.8874 65.9109 38.5471 65.9109Z" fill="#EA8F4E"/>
<path fill-rule="evenodd" clip-rule="evenodd" d="M21.7015 63.869H21.8716H22.3821C22.5523 63.869 22.8926 63.869 23.0627 63.6989C23.2329 63.6989 23.0627 63.1884 23.2329 63.0183C23.2329 62.1675 23.2329 61.3167 23.2329 60.6361C23.2329 60.2957 23.403 59.9554 23.403 59.7853V58.0837C23.403 58.0837 23.403 57.4031 23.5732 57.4031V57.5732V57.7434C23.5732 57.9135 23.5732 58.0837 23.5732 58.2539C23.5732 58.424 23.5732 58.7643 23.5732 59.1046L23.7434 62.5078C23.7434 62.8481 23.7434 63.0183 23.7434 63.3586C23.7434 63.5287 23.7434 63.6989 23.9135 63.6989H24.2538H23.7434V62.5078C23.7434 61.9973 23.7434 61.657 23.7434 61.1465C23.7434 60.9764 23.7434 60.6361 23.7434 60.2957C23.5732 59.7853 23.5732 59.2748 23.5732 58.7643C23.5732 58.7643 23.5732 58.7643 23.5732 58.5942C23.5732 58.424 23.5732 58.0837 23.5732 57.7434C23.5732 57.5732 23.5732 57.5732 23.5732 57.4031C23.5732 57.2329 23.5732 57.0628 23.5732 57.0628C23.403 57.2329 23.403 58.424 23.403 58.5942C23.403 58.9345 23.403 59.2748 23.403 59.445L23.2329 61.3167C23.2329 61.3167 23.2329 61.4868 23.2329 61.657L23.0627 63.6989L22.0418 63.869C21.8716 63.869 21.8716 63.869 21.7015 63.869H20.3402H20.1701V62.3376C20.1701 60.6361 20.3402 58.9345 20.1701 57.4031C20.1701 57.2329 20.1701 50.9371 20.1701 50.767C19.9999 50.767 19.8297 50.767 19.6596 50.767C19.4894 50.767 19.3193 50.767 19.1491 50.767C18.8088 50.767 18.4685 50.9371 18.1282 50.9371C18.1282 50.767 18.1282 49.5759 18.1282 49.4057C18.2983 49.4057 18.4685 49.4057 18.6386 49.4057C18.8088 49.2355 18.979 49.4057 19.1491 49.2355C19.8297 49.2355 20.3402 49.2355 21.0208 49.2355C21.191 49.2355 21.3612 49.2355 21.5313 49.2355C21.7015 49.2355 21.8716 49.2355 22.0418 49.2355C22.2119 49.2355 23.7434 49.4057 23.9135 49.4057C24.2538 49.4057 24.5941 49.4057 24.9345 49.4057C25.2748 49.4057 25.6151 49.4057 25.9554 49.4057C25.9554 49.5759 25.9554 49.4057 25.9554 49.5759C25.7852 49.5759 25.9554 49.5759 25.9554 49.4057C26.1256 49.5759 25.9554 49.5759 26.2957 49.5759C26.4659 49.5759 26.4659 49.5759 26.4659 49.5759C26.4659 49.9162 26.4659 50.9371 26.4659 51.1073V49.5759C26.636 49.5759 26.636 49.746 26.636 49.746V56.5523C26.636 57.7434 26.636 58.9345 26.636 59.9554C26.636 60.2957 26.636 63.3586 26.636 63.5287C26.636 63.5287 26.636 63.5287 26.636 63.3586V63.0183C26.636 63.0183 26.636 62.8481 26.636 62.6779C26.636 61.8272 26.636 60.8062 26.636 59.9554C26.636 59.445 26.636 58.7643 26.636 58.2539C26.636 57.2329 26.636 49.5759 26.636 49.4057C26.4659 49.4057 26.1256 49.4057 26.1256 49.4057H24.9345H24.424L24.0837 49.2355C23.9135 49.2355 23.7434 49.2355 23.5732 49.2355C23.2329 49.2355 22.3821 49.2355 22.0418 49.2355H21.191C21.0208 49.2355 20.6805 49.2355 20.3402 49.2355C20.1701 49.0654 19.8297 49.2355 19.6596 49.2355C19.4894 49.2355 19.3193 49.2355 19.1491 49.2355C19.1491 49.2355 18.979 49.2355 18.8088 49.2355C18.6386 49.2355 18.6386 49.2355 18.4685 49.2355C18.2983 49.4057 18.2983 49.4057 18.1282 49.4057C18.1282 49.4057 18.1282 50.767 18.1282 50.9371H19.1491C19.3193 50.9371 19.4894 50.9371 19.6596 50.9371C20.3402 50.767 20.1701 50.767 20.1701 51.6177V54.1701C20.1701 54.6806 20.1701 55.191 20.1701 55.7015C20.1701 56.3821 20.1701 56.8926 20.1701 57.4031C20.1701 58.0837 20.1701 63.6989 20.1701 64.0392C20.3402 64.0392 20.6805 63.869 21.0208 63.869C21.0208 63.869 21.191 63.869 21.3612 63.869C21.5313 63.869 21.5313 63.869 21.7015 63.869Z" fill="#B48C29"/>
<path fill-rule="evenodd" clip-rule="evenodd" d="M12.6831 49.916C12.8533 49.916 12.6831 49.916 12.6831 49.916C12.8533 49.7459 12.6831 49.7459 12.8533 49.7459C12.8533 49.916 12.8533 50.0862 12.8533 50.0862C12.8533 50.2564 12.6831 50.2564 12.6831 50.2564C12.6831 50.4265 12.6831 50.2564 12.6831 50.4265C12.513 50.4265 12.513 50.4265 12.3428 50.5967V50.7668C12.513 50.7668 12.3428 50.7668 12.513 50.7668C12.513 50.937 12.513 50.937 12.513 50.937C12.513 50.937 12.513 50.937 12.3428 50.937C12.1727 50.7668 12.0025 50.5967 12.0025 50.5967C11.8324 50.4265 11.8324 50.4265 11.8324 50.4265L11.6622 50.2564C11.6622 50.2564 11.6622 50.2564 11.492 50.0862C11.492 50.0862 11.492 50.0862 11.492 49.916C11.492 49.916 11.492 49.916 11.6622 49.916C11.492 49.916 11.1517 49.916 11.1517 49.916V51.2773C11.1517 51.2773 11.492 51.2773 11.6622 51.2773C11.8324 51.2773 12.1727 51.2773 12.3428 51.2773C12.3428 51.1071 12.3428 51.1071 12.513 51.1071C12.6831 51.1071 12.8533 51.1071 12.8533 51.1071C13.0235 51.1071 13.3638 51.1071 13.5339 51.1071V49.7459C13.0235 49.5757 13.3638 49.916 13.1936 49.916C13.0235 49.7459 13.0235 49.7459 12.8533 49.7459C12.8533 49.7459 12.8533 49.7459 12.6831 49.916Z" fill="#F4B21A"/>
<path fill-rule="evenodd" clip-rule="evenodd" d="M36.6754 69.3139L39.0576 69.1438C39.0576 69.1438 39.0576 69.1438 39.2278 69.1438C39.2278 69.1438 39.2278 69.1438 39.3979 69.1438V68.293C38.8874 68.293 38.377 68.293 38.0367 68.293C37.8665 68.293 37.8665 68.293 37.6964 68.293C37.5262 68.293 37.5262 68.4631 37.356 68.4631H36.8456H36.6754V69.3139Z" fill="#EB8F4C"/>
<path fill-rule="evenodd" clip-rule="evenodd" d="M28.3377 70.1648C27.9974 70.1648 27.4869 70.1648 27.1466 70.1648C26.9764 70.1648 26.8063 70.1648 26.6361 70.1648C26.466 70.1648 26.1257 70.3349 25.9555 70.3349C25.7853 70.3349 25.6152 70.3349 25.445 70.3349C25.2749 70.3349 25.1047 70.3349 25.1047 70.3349H24.2539C24.0838 70.3349 23.9136 70.3349 23.7435 70.3349L22.8927 70.5051C22.8927 70.5051 22.8927 70.5051 22.7225 70.5051C22.5524 70.5051 22.2121 70.5051 22.2121 70.5051C22.0419 70.5051 22.2121 70.5051 22.0419 70.5051C22.0419 70.5051 21.5314 70.5051 21.3613 70.5051C21.1911 70.5051 21.021 70.5051 20.8508 70.5051L20.3403 70.6753C20.1702 70.6753 20.1702 70.6753 20.1702 70.6753H20C19.6597 70.5051 19.3194 70.6753 18.9791 70.5051C18.8089 70.5051 18.6388 70.5051 18.4686 70.5051C18.4686 70.5051 18.4686 70.5051 18.2984 70.5051C18.2984 70.5051 18.2984 70.5051 18.1283 70.5051H17.4477C17.4477 70.5051 17.4477 70.5051 17.2775 70.5051L15.4058 70.3349C15.2356 70.3349 15.2356 70.3349 15.2356 70.3349C15.0655 70.3349 14.8953 70.3349 14.7251 70.3349L13.534 70.1648C13.3639 70.1648 13.3639 70.1648 13.3639 70.1648C13.1937 70.1648 13.1937 70.1648 13.0236 70.1648C12.6833 70.1648 12.5131 70.1648 12.1728 70.1648H12.0026C11.6623 69.9946 11.1518 69.9946 10.8115 69.9946H11.1518L11.322 70.1648C11.6623 70.1648 12.1728 70.1648 12.5131 70.1648C12.6833 70.1648 12.8534 70.1648 13.0236 70.1648C13.1937 70.3349 13.3639 70.3349 13.534 70.3349H14.7251C14.8953 70.3349 15.0655 70.5051 15.2356 70.5051C15.5759 70.5051 15.9162 70.5051 16.2566 70.5051C16.5969 70.5051 17.2775 70.6753 17.4477 70.6753L19.6597 70.8454C20 70.8454 20.3403 70.8454 20.6806 70.8454L22.0419 70.6753C22.5524 70.6753 23.0628 70.5051 23.4032 70.5051L28.3377 70.1648Z" fill="#F7EEE8"/>
<path fill-rule="evenodd" clip-rule="evenodd" d="M20.1702 67.1021V68.2932C20.3403 68.2932 20.5105 68.2932 20.6806 68.2932H21.021C21.1911 68.2932 21.3613 68.2932 21.5314 68.2932C21.7016 68.2932 21.8717 68.2932 22.0419 68.2932V67.1021C21.8717 67.1021 21.7016 67.1021 21.5314 67.1021C21.3613 67.1021 21.1911 67.1021 21.021 67.1021C20.8508 67.1021 20.3403 67.1021 20.1702 67.1021Z" fill="#EA8F4E"/>
<path fill-rule="evenodd" clip-rule="evenodd" d="M33.9529 50.7668C33.7827 50.937 33.7827 50.937 33.7827 50.937H33.9529C33.9529 50.937 33.9529 51.1071 33.9529 51.2773C34.123 51.2773 34.123 51.2773 34.2932 51.2773C34.4633 51.2773 34.2932 51.2773 34.4633 51.2773C34.8037 51.1071 34.8037 51.4474 34.9738 51.4474V51.2773H35.3141C35.3141 51.1071 35.3141 51.1071 35.3141 50.937H35.4843L35.3141 50.7668C35.3141 50.7668 35.3141 50.7668 35.3141 50.5966C35.3141 50.4265 35.3141 50.5966 35.4843 50.4265C35.4843 50.2563 35.6544 50.2563 35.4843 50.2563H35.3141C35.3141 50.0862 35.3141 50.0862 35.3141 49.916C35.3141 49.916 35.144 49.916 34.9738 49.916V49.7458C34.6335 49.916 34.8037 49.916 34.4633 49.916L34.2932 49.7458C34.2932 49.916 34.2932 49.916 34.2932 49.916H33.9529C33.9529 50.0862 33.9529 50.2563 33.9529 50.2563C33.7827 50.2563 33.7827 50.2563 33.7827 50.2563L33.9529 50.4265C33.9529 50.5966 33.9529 50.5966 33.9529 50.7668Z" fill="#F1B21D"/>
<path fill-rule="evenodd" clip-rule="evenodd" d="M26.6361 63.5286C26.4659 63.5286 26.1256 63.5286 25.9555 63.5286L24.2539 63.6987H23.9136C23.7434 63.6987 23.7434 63.5286 23.7434 63.3584C23.7434 63.0181 23.7434 62.8479 23.7434 62.5076L23.5733 59.1045C23.5733 58.7642 23.5733 58.4239 23.5733 58.2537C23.5733 58.0835 23.5733 57.9134 23.5733 57.7432V57.5731V57.4029C23.4031 57.4029 23.4031 58.0835 23.4031 58.0835V59.7851C23.4031 59.9553 23.233 60.2956 23.233 60.6359C23.233 61.3165 23.233 62.1673 23.233 63.0181C23.0628 63.1883 23.233 63.6987 23.0628 63.6987C22.8926 63.8689 22.5523 63.8689 22.3822 63.8689H21.8717H21.7015C21.8717 63.8689 22.3822 63.8689 22.5523 63.8689C23.0628 63.8689 23.233 63.8689 23.233 63.5286C23.233 63.1883 23.233 63.0181 23.233 62.6778C23.233 62.3375 23.233 62.1673 23.233 61.827C23.233 61.6568 23.233 61.4867 23.233 61.3165C23.4031 61.1464 23.233 60.8061 23.4031 60.4657C23.4031 60.4657 23.4031 60.2956 23.4031 60.1254V58.7642C23.4031 58.594 23.4031 58.7642 23.4031 58.594C23.4031 58.594 23.4031 58.4239 23.5733 58.4239C23.5733 58.594 23.5733 58.594 23.5733 58.594C23.5733 58.594 23.5733 58.594 23.5733 58.7642C23.5733 58.9343 23.5733 59.615 23.5733 59.7851C23.5733 59.7851 23.5733 59.9553 23.5733 60.1254C23.5733 60.2956 23.5733 60.2956 23.5733 60.4657C23.5733 60.6359 23.5733 60.9762 23.5733 61.1464C23.5733 61.3165 23.5733 61.4867 23.5733 61.6568C23.7434 61.9972 23.5733 62.6778 23.7434 63.1883V63.3584C23.7434 63.5286 23.7434 63.6987 23.7434 63.6987C23.9136 63.8689 24.2539 63.6987 24.4241 63.6987C24.7644 63.6987 24.9345 63.6987 25.1047 63.6987C25.445 63.6987 25.7853 63.6987 25.9555 63.6987C26.1256 63.5286 26.4659 63.6987 26.6361 63.5286C26.6361 63.3584 26.6361 60.6359 26.6361 60.2956C26.8063 60.2956 26.8063 60.2956 26.8063 60.2956C26.9764 60.4657 26.9764 60.4657 26.9764 60.4657C27.1466 60.6359 27.1466 60.6359 27.1466 60.6359C27.1466 60.8061 27.1466 60.6359 27.1466 60.8061C27.3167 60.8061 27.3167 60.8061 27.3167 60.8061C27.3167 60.9762 27.3167 60.8061 27.4869 60.9762L27.657 61.1464C27.657 61.1464 27.657 61.1464 27.657 61.3165H27.8272V61.4867C27.9974 61.4867 27.9974 61.4867 27.9974 61.4867C28.1675 61.6568 27.9974 61.6568 28.1675 61.6568L28.3377 61.827C28.3377 61.827 28.3377 61.827 28.3377 61.6568C28.1675 61.6568 28.3377 61.6568 28.1675 61.6568C28.1675 61.6568 28.1675 61.6568 28.1675 61.4867C28.1675 61.4867 28.1675 61.4867 27.9974 61.4867L27.8272 61.1464C27.657 61.1464 27.8272 61.1464 27.657 61.1464C27.657 60.9762 27.657 61.1464 27.657 61.1464C27.4869 60.9762 27.657 60.9762 27.4869 60.9762C27.4869 60.8061 27.4869 60.8061 27.4869 60.8061C27.3167 60.8061 27.3167 60.8061 27.3167 60.8061L26.9764 60.4657L26.8063 60.1254H26.6361C26.6361 59.9553 26.6361 59.2746 26.6361 59.1045V51.2772C26.6361 50.7668 26.6361 49.916 26.6361 49.4055C26.6361 49.4055 26.6361 49.4055 26.4659 49.4055C26.1256 49.4055 25.7853 49.4055 25.6152 49.4055C25.1047 49.4055 24.7644 49.4055 24.4241 49.4055H24.9345H26.1256C26.1256 49.4055 26.4659 49.4055 26.6361 49.4055C26.6361 49.5757 26.6361 57.2327 26.6361 58.2537C26.6361 58.7642 26.6361 59.4448 26.6361 59.9553C26.6361 60.8061 26.6361 61.827 26.6361 62.6778C26.6361 62.8479 26.6361 63.0181 26.6361 63.0181V63.3584C26.6361 63.5286 26.6361 63.5286 26.6361 63.5286Z" fill="#3A2706"/>
<path fill-rule="evenodd" clip-rule="evenodd" d="M1.28271 50.5967C1.28271 50.5967 1.28271 50.7668 1.45287 50.7668V50.937C1.45287 51.1071 1.45287 51.1071 1.45287 51.1071H1.28271C1.28271 51.2773 1.28271 51.1071 1.28271 51.2773C1.45287 51.2773 1.28271 51.1071 1.45287 51.2773C1.45287 51.4474 1.45287 51.4474 1.62303 51.4474C1.79319 51.4474 1.62303 51.4474 1.79319 51.6176C1.79319 51.6176 1.96334 51.6176 1.96334 51.4474H2.1335C2.30366 51.4474 2.30366 51.6176 2.47382 51.6176C2.47382 51.4474 2.47382 51.4474 2.47382 51.4474H2.64398V51.2773C2.81413 51.2773 2.64398 51.2773 2.81413 51.2773H2.64398C2.64398 51.2773 2.81413 51.2773 2.81413 51.1071C2.64398 50.937 2.64398 50.7668 2.64398 50.7668C2.81413 50.5967 2.81413 50.7668 2.81413 50.5967H2.64398C2.64398 50.4265 2.64398 50.4265 2.64398 50.2563C2.47382 50.2563 2.47382 50.4265 2.47382 50.2563V50.0862C2.30366 50.2563 2.30366 50.2563 2.1335 50.2563C1.96334 50.2563 1.96334 50.2563 1.79319 50.2563H1.62303H1.45287C1.45287 50.2563 1.62303 50.4265 1.45287 50.4265C1.45287 50.5967 1.28271 50.5967 1.28271 50.5967Z" fill="#F4B21A"/>
<path fill-rule="evenodd" clip-rule="evenodd" d="M7.91882 50.2563C8.08898 50.2563 8.08898 50.2563 8.08898 50.4265C8.08898 50.7668 8.08898 50.5966 7.91882 50.7668C8.08898 50.7668 8.08898 50.7668 8.08898 50.7668C8.08898 50.9369 8.08898 50.7668 8.08898 51.1071H8.25914C8.25914 51.1071 8.25914 51.1071 8.42929 51.1071C8.42929 51.1071 8.25914 51.1071 8.42929 51.1071H8.59945C8.93976 51.1071 8.76961 51.1071 8.93976 51.1071H9.10992C9.28008 50.9369 9.10992 50.9369 9.45023 50.7668H9.28008C9.28008 50.7668 9.28008 50.7668 9.28008 50.5966C9.28008 50.5966 9.28008 50.5966 9.28008 50.4265C9.28008 50.4265 9.28008 50.2563 9.45023 50.2563H9.28008C9.28008 50.0862 9.28008 50.2563 9.28008 50.0862C9.10992 50.0862 9.28008 49.916 9.10992 49.916C8.93976 49.916 8.93976 49.916 8.93976 49.7458C8.76961 49.916 8.93976 49.916 8.59945 49.916C8.42929 49.916 8.42929 49.7458 8.42929 49.7458C8.25914 49.916 8.25914 49.916 8.25914 49.916C8.08898 49.916 8.08898 49.916 8.08898 49.916V50.0862L7.91882 50.2563Z" fill="#F4B21A"/>
<path fill-rule="evenodd" clip-rule="evenodd" d="M16.2565 50.2563C16.2565 50.0862 16.4267 50.0862 16.4267 50.0862C16.4267 49.916 16.4267 49.916 16.4267 49.916C16.4267 49.916 16.4267 49.916 16.2565 49.916C16.2565 49.5757 16.4267 49.7458 16.2565 49.7458C16.0864 49.7458 16.0864 49.5757 16.0864 49.5757H15.9162C15.7461 49.7458 15.7461 49.5757 15.7461 49.5757H15.5759C15.5759 49.5757 15.5759 49.5757 15.4058 49.5757C15.4058 49.7458 15.4058 49.7458 15.4058 49.916C15.2356 49.916 15.2356 49.916 15.2356 49.916C15.4058 50.0862 15.2356 49.916 15.2356 50.0862C15.4058 50.0862 15.4058 50.0862 15.4058 50.2563C15.4058 50.4265 15.4058 50.4265 15.2356 50.4265C15.2356 50.5966 15.2356 50.4265 15.2356 50.5966H15.4058C15.4058 50.7668 15.4058 50.7668 15.4058 50.7668C15.5759 50.7668 15.5759 50.7668 15.5759 50.7668C15.5759 50.9369 15.5759 50.9369 15.5759 50.9369C15.7461 50.9369 15.7461 50.7668 15.9162 50.7668C16.0864 50.9369 16.0864 50.9369 16.0864 50.9369C16.2565 50.7668 16.2565 50.7668 16.2565 50.7668V50.5966H16.4267C16.4267 50.4265 16.2565 50.4265 16.2565 50.2563Z" fill="#F4B21A"/>
<path fill-rule="evenodd" clip-rule="evenodd" d="M39.3979 68.123V67.1021C39.2277 67.1021 39.0576 67.1021 39.0576 67.1021C38.8874 67.1021 38.8874 67.1021 38.7173 67.1021C38.7173 67.1021 38.3769 67.1021 38.2068 67.1021C38.2068 67.2722 38.2068 68.123 38.2068 68.2932C38.3769 68.2932 38.3769 68.123 38.5471 68.123H38.7173C38.8874 68.123 39.0576 68.123 39.3979 68.123Z" fill="#EA8F4E"/>
<path fill-rule="evenodd" clip-rule="evenodd" d="M11.8325 49.916C12.0026 49.7458 12.0026 49.7458 12.1728 49.7458C12.3429 49.7458 12.5131 49.7458 12.6833 49.916C12.6833 50.0862 12.6833 50.0862 12.5131 50.2563C12.5131 50.4265 12.3429 50.4265 12.0026 50.4265C12.1728 50.4265 12.1728 50.4265 12.1728 50.4265L11.8325 50.2563C11.8325 50.2563 11.8325 50.0862 11.8325 49.916ZM11.4922 49.916C11.4922 50.0862 11.4922 50.0862 11.4922 50.0862C11.6623 50.2563 11.6623 50.2563 11.6623 50.2563L11.8325 50.4265C11.8325 50.4265 11.8325 50.4265 12.0026 50.5966C12.0026 50.5966 12.1728 50.7668 12.3429 50.9369C12.5131 50.9369 12.5131 50.9369 12.5131 50.9369C12.5131 50.9369 12.5131 50.9369 12.5131 50.7668C12.3429 50.7668 12.5131 50.7668 12.3429 50.7668V50.5966C12.5131 50.4265 12.5131 50.4265 12.6833 50.4265C12.6833 50.2563 12.6833 50.4265 12.6833 50.2563C12.6833 50.2563 12.8534 50.2563 12.8534 50.0862C12.8534 50.0862 12.8534 49.916 12.8534 49.7458C12.6833 49.7458 12.8534 49.7458 12.6833 49.916C12.6833 49.916 12.8534 49.916 12.6833 49.916C12.8534 49.7458 12.8534 49.7458 12.8534 49.7458C13.0236 49.7458 13.0236 49.7458 13.1937 49.916C13.3639 49.916 13.0236 49.5757 13.534 49.7458V51.1071C13.3639 51.1071 13.0236 51.1071 12.8534 51.1071C12.8534 51.1071 12.6833 51.1071 12.5131 51.1071C12.3429 51.1071 12.3429 51.1071 12.3429 51.2773C12.1728 51.2773 11.8325 51.2773 11.6623 51.2773C11.4922 51.2773 11.1518 51.2773 11.1518 51.2773V49.916C11.1518 49.916 11.4922 49.916 11.6623 49.916C11.4922 49.916 11.4922 49.916 11.4922 49.916ZM10.9817 51.2773C11.322 51.2773 11.4922 51.2773 11.6623 51.2773C11.8325 51.2773 12.1728 51.2773 12.3429 51.2773C12.5131 51.2773 12.8534 51.2773 13.0236 51.2773L13.1937 51.1071C13.3639 51.1071 13.534 51.1071 13.534 51.1071V49.5757C13.534 49.5757 13.0236 49.7458 12.8534 49.7458C12.8534 49.7458 12.6833 49.7458 12.5131 49.7458C12.5131 49.7458 12.5131 49.7458 12.3429 49.7458C11.8325 49.7458 11.6623 49.7458 11.1518 49.7458C11.1518 49.7458 11.1518 49.916 10.9817 49.916V51.2773Z" fill="#F4BC33"/>
<path fill-rule="evenodd" clip-rule="evenodd" d="M28.1675 49.5757C28.1675 49.7458 28.1675 49.7458 28.1675 49.916C28.1675 50.0862 28.1675 50.2563 28.1675 50.4265C27.9973 50.4265 27.9973 50.5966 27.8271 50.5966C27.8271 50.5966 27.8271 50.4265 27.8271 50.5966C27.9973 50.5966 27.8271 50.5966 27.8271 50.7668C27.9973 50.7668 27.9973 50.7668 27.9973 50.7668L28.1675 50.9369C28.1675 50.9369 28.1675 50.5966 28.5078 50.7668C28.5078 50.9369 28.5078 50.9369 28.5078 50.9369H28.6779C28.6779 50.7668 28.6779 50.7668 28.8481 50.7668V50.5966C28.8481 50.4265 28.8481 50.4265 28.8481 50.2563C28.8481 50.0862 28.8481 50.0862 28.8481 49.916H29.0182C28.8481 49.916 28.8481 49.916 28.8481 49.916C28.8481 49.5757 28.8481 49.7458 28.6779 49.5757C28.5078 49.5757 28.5078 49.5757 28.5078 49.5757C28.3376 49.7458 28.5078 49.5757 28.3376 49.7458C28.1675 49.7458 28.3376 49.7458 28.1675 49.5757Z" fill="#F4B21A"/>
<path fill-rule="evenodd" clip-rule="evenodd" d="M18.4685 52.4685C18.4685 52.6386 18.6387 52.6386 18.6387 52.8088C18.4685 52.979 18.4685 52.8088 18.4685 52.979H18.6387C18.6387 52.979 18.6387 52.979 18.6387 53.1491C18.6387 53.1491 18.6387 53.1491 18.8088 53.1491V53.3193C18.8088 53.3193 18.8088 53.3193 18.979 53.1491C18.979 52.979 19.1491 53.3193 19.3193 53.3193C19.3193 52.979 19.3193 53.1491 19.3193 53.1491C19.4894 53.1491 19.3193 52.979 19.4894 52.979C19.4894 52.979 19.4894 52.979 19.4894 52.8088C19.4894 52.6386 19.4894 52.6386 19.4894 52.6386C19.6596 52.4685 19.6596 52.6386 19.6596 52.4685C19.4894 52.4685 19.4894 52.6386 19.4894 52.4685C19.4894 52.2983 19.3193 52.2983 19.3193 52.2983C19.3193 52.2983 19.3193 52.2983 19.3193 52.1282C19.1491 52.1282 19.1491 52.1282 19.1491 52.1282V52.2983C19.1491 52.2983 19.1491 52.4685 18.979 52.2983C18.8088 52.2983 18.979 52.2983 18.8088 52.2983C18.8088 52.4685 18.8088 52.2983 18.6387 52.2983V52.4685H18.4685Z" fill="#EBB529"/>
<path fill-rule="evenodd" clip-rule="evenodd" d="M20.1702 69.484C20.3403 69.484 20.3403 69.484 20.3403 69.484C20.5105 69.484 20.5105 69.484 20.5105 69.484C20.6806 69.484 20.8508 69.484 21.021 69.484V68.4631C20.8508 68.2929 20.3403 68.4631 20.1702 68.4631V69.3139V69.484Z" fill="#EA8F4E"/>
<path fill-rule="evenodd" clip-rule="evenodd" d="M18.4685 57.2329H18.2983C18.4685 57.2329 18.4685 57.2329 18.4685 57.4031C18.6387 57.4031 18.4685 57.5732 18.4685 57.7434C18.6387 57.9135 18.6387 57.7434 18.6387 57.9135H18.8088C19.1491 57.7434 18.979 57.9135 19.1491 58.0837V57.9135C19.3193 57.9135 19.3193 57.9135 19.3193 57.7434C19.3193 57.5732 19.4894 57.7434 19.4894 57.7434C19.4894 57.5732 19.3193 57.5732 19.3193 57.4031L19.4894 57.2329C19.4894 57.2329 19.4894 57.2329 19.3193 57.2329C19.3193 57.2329 19.3193 57.2329 19.3193 57.0627C19.1491 57.0627 19.1491 57.0627 19.1491 56.8926C18.979 57.0627 18.979 57.0627 18.8088 57.0627C18.6387 56.8926 18.8088 56.8926 18.6387 56.8926C18.6387 57.0627 18.8088 57.0627 18.6387 57.0627C18.4685 57.0627 18.4685 57.0627 18.4685 57.2329Z" fill="#EBB529"/>
<path fill-rule="evenodd" clip-rule="evenodd" d="M18.4685 54.8506C18.4685 55.0207 18.4685 55.0207 18.6387 55.0207C18.6387 55.1909 18.6387 55.1909 18.6387 55.1909C18.4685 55.361 18.4685 55.1909 18.4685 55.361C18.6387 55.361 18.6387 55.361 18.6387 55.361V55.5312C18.6387 55.5312 18.6387 55.5312 18.8088 55.5312V55.7014C18.8088 55.5312 18.979 55.5312 19.1491 55.5312C19.3193 55.7014 19.3193 55.7014 19.3193 55.5312H19.4894V55.361C19.4894 55.1909 19.4894 55.361 19.4894 55.1909C19.4894 55.1909 19.3193 55.1909 19.4894 55.0207C19.4894 55.0207 19.4894 55.0207 19.4894 54.8506C19.4894 54.8506 19.4894 54.8506 19.4894 54.6804H19.3193V54.5103C19.1491 54.6804 19.1491 54.5103 19.1491 54.6804H18.979C18.979 54.6804 18.979 54.6804 18.8088 54.6804C18.8088 54.6804 18.8088 54.6804 18.6387 54.6804V54.8506H18.4685Z" fill="#F1B21D"/>
<path fill-rule="evenodd" clip-rule="evenodd" d="M30.0392 49.746C30.2093 49.746 30.2093 49.746 30.3795 49.746C30.5497 49.746 31.0601 49.746 31.2303 49.746C31.4004 49.9162 31.4004 49.9162 31.4004 49.9162H31.9109C31.9109 49.9162 31.9109 49.9162 32.0811 49.9162H32.4214C32.4214 49.9162 32.4214 51.1073 32.4214 51.2774H32.0811H31.4004C31.2303 51.2774 31.0601 51.2774 30.89 51.2774C30.7198 51.2774 30.5497 51.1073 30.3795 51.1073C30.0392 51.1073 30.0392 51.2774 30.0392 50.767C30.0392 50.4267 30.0392 50.0863 30.0392 49.746ZM30.2093 51.2774C30.3795 51.2774 30.5497 51.2774 30.7198 51.2774C31.0601 51.2774 32.4214 51.4476 32.5915 51.4476C32.5915 51.1073 32.5915 50.767 32.5915 50.5968V49.9162C32.4214 49.9162 31.4004 49.746 31.2303 49.746H30.3795C30.2093 49.746 30.0392 49.5759 30.0392 49.746V49.9162C30.0392 50.0863 30.0392 51.1073 30.0392 51.2774C30.2093 51.2774 30.2093 51.2774 30.2093 51.2774Z" fill="#E3AE2B"/>
<path fill-rule="evenodd" clip-rule="evenodd" d="M16.2565 50.2563C16.2565 50.4265 16.4267 50.4265 16.4267 50.5966H16.2565V50.7668C16.2565 50.7668 16.2565 50.7668 16.0864 50.9369C16.0864 50.9369 16.0864 50.9369 15.9162 50.7668C15.7461 50.7668 15.7461 50.9369 15.5759 50.9369C15.5759 50.9369 15.5759 50.9369 15.5759 50.7668C15.5759 50.7668 15.5759 50.7668 15.4057 50.7668C15.4057 50.7668 15.4057 50.7668 15.4057 50.5966H15.2356C15.2356 50.4265 15.2356 50.5966 15.2356 50.4265C15.4057 50.4265 15.4057 50.4265 15.4057 50.2563C15.4057 50.0861 15.4057 50.0861 15.2356 50.0861C15.2356 49.916 15.4057 50.0861 15.2356 49.916C15.2356 49.916 15.2356 49.916 15.4057 49.916C15.4057 49.7458 15.4057 49.7458 15.4057 49.5757C15.5759 49.5757 15.5759 49.5757 15.5759 49.5757H15.7461C15.7461 49.5757 15.7461 49.7458 15.9162 49.5757H16.0864C16.0864 49.5757 16.0864 49.7458 16.2565 49.7458C16.4267 49.7458 16.2565 49.5757 16.2565 49.916C16.4267 49.916 16.4267 49.916 16.4267 49.916C16.4267 49.916 16.4267 49.916 16.4267 50.0861C16.4267 50.0861 16.2565 50.0861 16.2565 50.2563ZM15.9162 49.5757C15.7461 49.5757 15.7461 49.5757 15.5759 49.4055V49.2354C15.4057 49.2354 15.5759 49.4055 15.5759 49.5757H15.2356V49.916C14.8953 49.916 15.2356 50.0861 15.2356 50.0861C15.4057 50.0861 15.4057 50.2563 15.2356 50.4265C15.2356 50.4265 15.2356 50.4265 15.2356 50.5966C15.0654 50.5966 15.0654 50.5966 15.0654 50.5966H15.2356C15.4057 50.5966 15.2356 50.7668 15.4057 50.9369C15.4057 50.9369 15.4057 50.9369 15.5759 50.9369V51.1071C15.5759 51.1071 15.7461 51.1071 15.7461 50.9369C15.7461 50.9369 15.7461 50.9369 15.9162 50.9369C16.0864 50.9369 16.0864 51.1071 16.2565 51.1071V50.9369H16.4267V50.5966H16.5968C16.5968 50.5966 16.5968 50.5966 16.4267 50.4265C16.4267 50.2563 16.4267 50.0861 16.4267 50.0861C16.5968 50.0861 16.4267 50.0861 16.5968 49.916C16.5968 49.7458 16.5968 49.916 16.4267 49.916C16.4267 49.7458 16.4267 49.7458 16.4267 49.5757H16.2565V49.4055C16.0864 49.4055 16.0864 49.4055 16.0864 49.4055C15.9162 49.5757 15.9162 49.5757 15.9162 49.5757Z" fill="#D7AA37"/>
<path fill-rule="evenodd" clip-rule="evenodd" d="M5.02618 49.916C5.02618 49.916 5.3665 49.916 5.53665 49.916H6.21728C6.21728 49.916 6.21728 51.1071 6.21728 51.2773C6.04713 51.2773 6.04713 51.2773 5.87697 51.2773C5.70681 51.2773 5.19634 51.2773 5.02618 51.2773L4.68587 51.4474C4.34555 51.4474 4.68587 51.4474 3.83508 51.4474C3.83508 51.2773 3.83508 50.0862 3.83508 50.0862C3.83508 49.916 4.51571 50.0862 4.68587 50.0862H5.02618C5.02618 50.0862 5.02618 50.0862 5.02618 49.916ZM5.19634 49.916C5.02618 49.916 4.00524 49.916 3.83508 49.916C3.83508 50.0862 3.83508 51.4474 3.83508 51.4474H4.34555C4.68587 51.4474 4.85603 51.4474 5.02618 51.4474C5.19634 51.4474 6.21728 51.2773 6.38744 51.2773V49.916C6.38744 49.7458 6.21728 49.7458 6.21728 49.7458C6.21728 49.7458 5.3665 49.916 5.19634 49.916Z" fill="#EBB529"/>
<path fill-rule="evenodd" clip-rule="evenodd" d="M19.1492 59.2747C19.1492 59.4448 18.979 59.4448 18.979 59.4448C18.8089 59.4448 18.8089 59.2747 18.6387 59.4448C18.6387 59.4448 18.6387 59.4448 18.6387 59.615C18.4686 59.615 18.6387 59.7851 18.6387 59.9553C18.4686 60.1254 18.6387 60.1254 18.6387 60.1254C18.6387 60.1254 18.8089 60.2956 18.8089 60.1254C18.979 60.1254 18.8089 60.1254 18.8089 60.1254C18.979 60.1254 18.979 60.1254 19.1492 60.1254H19.3194C19.3194 59.9553 19.3194 60.1254 19.3194 59.9553C19.3194 59.9553 19.1492 59.7851 19.3194 59.615V59.4448C19.1492 59.4448 19.1492 59.4448 19.1492 59.2747Z" fill="#F4B41B"/>
<path fill-rule="evenodd" clip-rule="evenodd" d="M9.10994 69.3139H8.93978C8.76963 69.4841 8.59947 69.4841 8.59947 69.3139C8.59947 69.1438 8.59947 69.1438 8.59947 69.1438H8.76963C8.76963 68.9736 8.76963 68.9736 8.93978 68.9736C8.93978 68.8034 8.93978 68.8034 8.93978 68.8034C9.10994 68.6333 9.10994 68.6333 9.10994 68.4631H8.93978V68.293C8.76963 68.293 8.59947 68.293 8.59947 68.293V68.4631C8.42931 68.4631 8.42931 68.4631 8.42931 68.4631C8.25916 68.6333 8.25916 68.6333 8.25916 68.6333C8.25916 68.6333 8.25916 68.6333 8.42931 68.6333L8.59947 68.4631C8.59947 68.4631 8.93978 68.4631 8.93978 68.6333C8.93978 68.8034 8.93978 68.6333 8.93978 68.8034C8.76963 68.8034 8.59947 68.9736 8.59947 68.9736C8.42931 69.1438 8.59947 69.1438 8.42931 69.1438C8.25916 69.1438 8.25916 68.8034 8.25916 68.8034V68.9736C8.25916 69.1438 8.25916 69.1438 8.25916 69.1438C8.25916 69.3139 8.25916 69.3139 8.25916 69.3139L8.42931 69.4841C8.59947 69.4841 8.76963 69.4841 8.93978 69.4841C9.10994 69.4841 9.10994 69.4841 9.2801 69.3139C9.2801 69.1438 9.45026 69.1438 9.2801 68.8034C9.2801 68.9736 9.2801 69.1438 9.10994 69.1438V69.3139Z" fill="#AC623C"/>
<path fill-rule="evenodd" clip-rule="evenodd" d="M39.3978 51.7878V51.6176H38.3769C38.3769 51.6176 38.3769 51.6176 37.8664 51.6176H37.1858C37.0156 51.4474 37.0156 51.4474 37.0156 51.4474V50.0862C37.1858 50.0862 37.3559 50.0862 37.3559 50.0862C37.5261 50.0862 37.5261 50.2563 37.6963 50.2563C37.8664 50.2563 38.0366 50.2563 38.2067 50.2563C38.3769 50.2563 38.547 50.2563 38.7172 50.2563C38.8873 50.2563 39.0575 50.2563 39.3978 50.2563C39.0575 50.2563 37.0156 50.0862 37.0156 50.0862V51.6176H37.5261C37.6963 51.6176 38.0366 51.6176 38.2067 51.6176C38.3769 51.7878 38.547 51.7878 38.7172 51.7878C38.8873 51.7878 39.0575 51.7878 39.3978 51.7878Z" fill="#E3AE2B"/>
<path fill-rule="evenodd" clip-rule="evenodd" d="M8.08897 50.0862V49.916C8.08897 49.916 8.08897 49.916 8.25913 49.916C8.25913 49.916 8.25913 49.916 8.42928 49.7458C8.42928 49.7458 8.42928 49.916 8.59944 49.916C8.93975 49.916 8.7696 49.916 8.93975 49.7458C8.93975 49.916 8.93975 49.916 9.10991 49.916C9.28006 49.916 9.10991 50.0862 9.28006 50.0862C9.28006 50.2563 9.28006 50.0862 9.28006 50.2563H9.45022C9.28006 50.2563 9.28006 50.4265 9.28006 50.4265C9.28006 50.5966 9.28006 50.5966 9.28006 50.5966C9.28006 50.7668 9.28006 50.7668 9.28006 50.7668H9.45022C9.10991 50.9369 9.28006 50.9369 9.10991 51.1071H8.93975C8.7696 51.1071 8.93975 51.1071 8.59944 51.1071H8.42928C8.25913 51.1071 8.42928 51.1071 8.42928 51.1071C8.25913 51.1071 8.25913 51.1071 8.25913 51.1071H8.08897C8.08897 50.7668 8.08897 50.9369 8.08897 50.7668C8.08897 50.7668 8.08897 50.7668 7.91881 50.7668C8.08897 50.5966 8.08897 50.7668 8.08897 50.4265C8.08897 50.2563 8.08897 50.2563 7.91881 50.2563L8.08897 50.0862ZM9.45022 50.7668C9.28006 50.5966 9.28006 50.5966 9.28006 50.5966C9.28006 50.4265 9.28006 50.4265 9.45022 50.2563C9.45022 50.0862 9.62038 50.2563 9.62038 50.0862C9.45022 50.0862 9.45022 50.0862 9.28006 50.0862V49.916H9.10991C8.93975 49.7458 9.10991 49.7458 9.10991 49.5757C8.93975 49.5757 8.93975 49.916 8.7696 49.916C8.42928 49.916 8.42928 49.5757 8.25913 49.5757C8.25913 49.7458 8.25913 49.7458 8.25913 49.916C8.25913 49.916 8.25913 49.916 8.08897 49.916C7.91881 49.916 8.08897 50.0862 7.91881 50.0862H7.74866C7.74866 50.2563 7.74866 50.0862 7.91881 50.2563L8.08897 50.4265C8.08897 50.5966 8.08897 50.5966 7.91881 50.7668C7.91881 50.7668 7.74866 50.7668 7.74866 50.9369C7.91881 50.9369 8.08897 50.7668 8.08897 50.9369V51.1071C8.42928 51.1071 8.25913 51.2773 8.25913 51.4474C8.42928 51.4474 8.42928 51.1071 8.59944 51.1071C8.7696 51.1071 8.7696 51.1071 8.7696 51.1071L8.93975 51.2773C8.93975 51.4474 8.93975 51.4474 9.10991 51.4474C9.10991 51.2773 8.93975 51.2773 9.10991 51.1071H9.28006V50.9369C9.28006 50.7668 9.45022 50.9369 9.62038 50.9369C9.62038 50.7668 9.62038 50.7668 9.45022 50.7668Z" fill="#E8B839"/>
<path fill-rule="evenodd" clip-rule="evenodd" d="M11.8324 49.916C11.8324 50.0862 11.8324 50.2563 11.8324 50.2563L12.1727 50.4265C12.1727 50.4265 12.1727 50.4265 12.0026 50.4265C12.3429 50.4265 12.513 50.4265 12.513 50.2563C12.6832 50.0862 12.6832 50.0862 12.6832 49.916C12.513 49.7458 12.3429 49.7458 12.1727 49.7458C12.0026 49.7458 12.0026 49.7458 11.8324 49.916Z" fill="#F4B21C"/>
<path fill-rule="evenodd" clip-rule="evenodd" d="M2.13349 50.2563H1.96333C1.79318 50.2563 1.79318 49.916 1.62302 49.916C1.62302 50.0862 1.79318 50.0862 1.62302 50.2563C1.45286 50.2563 1.45286 50.2563 1.45286 50.2563V50.4265C1.28271 50.5966 1.28271 50.4265 1.28271 50.4265C1.11255 50.4265 1.28271 50.4265 1.11255 50.5966C1.11255 50.5966 1.11255 50.5966 1.28271 50.5966C1.28271 50.5966 1.45286 50.5966 1.45286 50.4265C1.62302 50.4265 1.45286 50.2563 1.45286 50.2563H1.62302H1.79318C1.96333 50.2563 1.96333 50.2563 2.13349 50.2563C2.30365 50.2563 2.30365 50.2563 2.4738 50.0862V50.2563C2.4738 50.4265 2.4738 50.2563 2.64396 50.2563C2.64396 50.4265 2.64396 50.4265 2.64396 50.5966H2.81412C2.81412 50.7668 2.81412 50.5966 2.64396 50.7668C2.64396 50.7668 2.64396 50.937 2.81412 51.1071C2.81412 51.2773 2.64396 51.2773 2.64396 51.2773H2.81412C2.64396 51.2773 2.81412 51.2773 2.64396 51.2773V51.4474H2.4738C2.4738 51.4474 2.4738 51.4474 2.4738 51.6176C2.30365 51.6176 2.30365 51.4474 2.13349 51.4474H1.96333C1.96333 51.6176 1.79318 51.6176 1.79318 51.6176C1.62302 51.4474 1.79318 51.4474 1.62302 51.4474C1.45286 51.4474 1.45286 51.4474 1.45286 51.2773C1.28271 51.1071 1.45286 51.2773 1.28271 51.2773C1.28271 51.1071 1.28271 51.2773 1.28271 51.1071H1.45286C1.45286 51.1071 1.45286 51.1071 1.45286 50.937C1.45286 51.1071 1.45286 50.937 1.45286 51.1071C1.28271 51.1071 1.11255 51.2773 1.11255 51.2773C1.28271 51.2773 1.28271 51.2773 1.45286 51.2773V51.4474C1.45286 51.6176 1.62302 51.4474 1.62302 51.6176C1.79318 51.6176 1.62302 51.7877 1.62302 51.7877C1.79318 51.7877 1.79318 51.7877 1.79318 51.7877C1.79318 51.6176 1.96333 51.4474 2.13349 51.4474C2.30365 51.4474 2.30365 51.7877 2.4738 51.7877V51.6176C2.4738 51.4474 2.64396 51.6176 2.64396 51.4474C2.64396 51.4474 2.64396 51.2773 2.81412 51.2773C2.81412 51.2773 2.81412 51.2773 2.98428 51.2773C2.98428 51.2773 2.98428 51.2773 2.98428 51.1071C2.81412 51.1071 2.98428 51.1071 2.81412 51.1071C2.81412 51.1071 2.64396 51.1071 2.81412 50.7668C2.81412 50.7668 2.81412 50.7668 2.81412 50.5966C2.98428 50.5966 2.98428 50.5966 2.98428 50.4265H2.81412V50.2563H2.4738V50.0862C2.4738 50.0862 2.4738 50.0862 2.4738 49.916C2.4738 49.916 2.30365 50.2563 2.13349 50.2563Z" fill="#D7AA37"/>
<path fill-rule="evenodd" clip-rule="evenodd" d="M28.6779 49.4055C28.5078 49.4055 28.5078 49.5757 28.5078 49.5757C28.3376 49.5757 28.3376 49.5757 28.1675 49.5757C28.1675 49.5757 28.1675 49.4055 27.9973 49.5757H28.1675C28.3376 49.7458 28.1675 49.7458 28.3376 49.7458C28.5078 49.5757 28.3376 49.7458 28.5078 49.5757C28.5078 49.5757 28.5078 49.5757 28.6779 49.5757C28.8481 49.7458 28.8481 49.5757 28.8481 49.916C28.8481 49.916 28.8481 49.916 29.0182 49.916H28.8481C28.8481 50.0861 28.8481 50.0861 28.8481 50.2563C28.8481 50.4265 28.8481 50.4265 28.8481 50.5966V50.7668C28.6779 50.7668 28.6779 50.7668 28.6779 50.9369H28.5078C28.5078 50.9369 28.5078 50.9369 28.5078 50.7668C28.1675 50.5966 28.1675 50.9369 28.1675 50.9369L27.9973 50.7668C27.9973 50.7668 27.9973 50.7668 27.8271 50.7668C27.8271 50.5966 27.9973 50.5966 27.8271 50.5966C27.8271 50.4265 27.8271 50.5966 27.8271 50.5966C27.8271 50.4265 27.8271 50.4265 27.8271 50.4265C27.8271 50.2563 27.8271 50.2563 27.8271 50.0861H27.657V49.916C27.657 50.0861 27.657 50.0861 27.8271 50.0861C27.8271 50.2563 27.8271 50.2563 27.8271 50.4265H27.657C27.657 50.5966 27.657 50.5966 27.657 50.5966H27.8271V50.9369C27.9973 50.9369 27.9973 50.7668 27.9973 51.1071C28.1675 51.1071 28.1675 50.9369 28.3376 50.9369C28.5078 50.9369 28.5078 51.1071 28.6779 51.1071V50.9369H28.8481V50.7668C28.8481 50.5966 28.8481 50.5966 29.0182 50.5966C29.0182 50.4265 28.8481 50.4265 28.8481 50.2563C28.8481 50.0861 29.0182 50.0861 29.0182 49.916C28.6779 49.916 29.0182 49.5757 28.8481 49.5757C28.6779 49.5757 28.6779 49.7458 28.6779 49.4055Z" fill="#DAB339"/>
<path fill-rule="evenodd" clip-rule="evenodd" d="M9.45022 50.767C9.62038 50.767 9.62038 50.767 9.62038 50.9371C9.45022 50.9371 9.28006 50.767 9.28006 50.9371V51.1073H9.10991C8.93975 51.2774 9.10991 51.2774 9.10991 51.4476C8.93975 51.4476 8.93975 51.4476 8.93975 51.2774L8.7696 51.1073C8.7696 51.1073 8.7696 51.1073 8.59944 51.1073C8.42928 51.1073 8.42928 51.4476 8.25913 51.4476C8.25913 51.2774 8.42928 51.1073 8.08897 51.1073V50.9371C8.08897 50.767 7.91881 50.9371 7.74866 50.9371C7.74866 50.767 7.91881 50.767 7.91881 50.767C8.08897 50.5968 8.08897 50.5968 8.08897 50.4266L7.91881 50.2565C7.74866 50.0863 7.74866 50.2565 7.74866 50.0863H7.91881C8.08897 50.0863 7.91881 49.9162 8.08897 49.9162C8.25913 49.9162 8.25913 49.9162 8.25913 49.9162C8.25913 49.746 8.25913 49.746 8.25913 49.5759C8.42928 49.5759 8.42928 49.9162 8.7696 49.9162C8.93975 49.9162 8.93975 49.5759 9.10991 49.5759C9.10991 49.746 8.93975 49.746 9.10991 49.9162H9.28006V50.0863C9.45022 50.0863 9.45022 50.0863 9.62038 50.0863C9.62038 50.2565 9.45022 50.0863 9.45022 50.2565C9.28006 50.4266 9.28006 50.4266 9.28006 50.5968C9.28006 50.5968 9.28006 50.5968 9.45022 50.767C9.45022 50.5968 9.45022 50.5968 9.45022 50.5968H9.28006C9.28006 50.5968 9.28006 50.5968 9.28006 50.4266C9.28006 50.4266 9.28006 50.4266 9.45022 50.2565C9.45022 50.2565 9.45022 50.2565 9.62038 50.2565V50.0863H9.45022C9.45022 49.9162 9.45022 49.9162 9.28006 49.746H9.10991C9.10991 49.746 9.10991 49.746 9.10991 49.5759C9.10991 49.4057 8.93975 49.5759 8.93975 49.746C8.7696 49.746 8.7696 49.746 8.59944 49.746L8.42928 49.5759C8.25913 49.4057 8.25913 49.746 8.25913 49.746C7.91881 49.746 8.08897 49.9162 7.91881 50.0863H7.74866V50.2565L7.91881 50.4266C7.91881 50.4266 8.08897 50.4266 8.08897 50.5968C8.08897 50.5968 7.91881 50.5968 7.91881 50.767H7.74866C7.74866 50.9371 7.74866 50.9371 7.74866 50.9371C7.91881 50.9371 7.91881 50.9371 7.91881 50.9371V51.1073L8.25913 51.2774C8.25913 51.4476 8.25913 51.4476 8.25913 51.4476H8.42928C8.42928 51.4476 8.42928 51.4476 8.42928 51.2774C8.59944 51.1073 8.7696 51.2774 8.7696 51.2774L9.10991 51.4476C9.10991 51.2774 9.10991 51.2774 9.10991 51.1073C9.45022 51.1073 9.28006 51.2774 9.28006 50.9371H9.62038C9.62038 50.767 9.62038 50.767 9.45022 50.767Z" fill="#533A07"/>
<path fill-rule="evenodd" clip-rule="evenodd" d="M7.23816 69.6542C7.23816 69.8244 7.23816 69.6542 7.40832 69.6542L7.91879 69.8244C7.91879 69.8244 7.91879 69.8244 8.08894 69.8244C8.08894 69.8244 8.08894 69.8244 8.08894 69.6542H8.2591C8.2591 69.4841 8.2591 69.4841 8.2591 69.4841L8.08894 69.3139C7.91879 69.3139 7.74863 69.1438 7.57847 69.3139L7.40832 69.4841C7.23816 69.6542 7.40832 69.6542 7.23816 69.6542Z" fill="#A75A35"/>
<path fill-rule="evenodd" clip-rule="evenodd" d="M30.2095 51.2773C30.2095 51.2773 30.2095 51.2773 30.0393 51.2773C30.0393 51.1071 30.0393 50.0862 30.0393 49.916V49.7458C30.0393 49.5757 30.2095 49.7458 30.3796 49.7458H31.2304C31.4005 49.7458 32.4215 49.916 32.5916 49.916V50.5966C32.5916 50.7668 32.5916 51.1071 32.5916 51.4474C32.4215 51.4474 31.0602 51.2773 30.7199 51.2773C30.7199 51.2773 30.7199 51.2773 30.8901 51.2773C31.0602 51.2773 31.4005 51.2773 31.7409 51.4474H32.0812C32.2513 51.4474 32.4215 51.4474 32.5916 51.4474C32.5916 51.2773 32.5916 50.9369 32.5916 50.5966C32.5916 50.4265 32.5916 50.0862 32.5916 49.916C32.5916 49.7458 32.0812 49.7458 32.0812 49.7458C31.911 49.7458 31.5707 49.7458 31.2304 49.7458H31.0602C30.8901 49.7458 30.7199 49.7458 30.7199 49.7458C30.5498 49.5757 30.0393 49.5757 30.0393 49.5757C29.8691 49.7458 29.8691 49.916 29.8691 50.0862C29.8691 50.2563 29.8691 51.1071 30.0393 51.2773H30.2095Z" fill="#442B06"/>
<path fill-rule="evenodd" clip-rule="evenodd" d="M5.19633 49.916C5.36649 49.916 6.21727 49.7458 6.21727 49.7458C6.21727 49.7458 6.38743 49.7458 6.38743 49.916V51.2773C6.21727 51.2773 5.19633 51.4474 5.02617 51.4474C4.85602 51.4474 4.68586 51.4474 4.34554 51.4474H3.83507C3.83507 51.4474 3.83507 50.0862 3.83507 49.916C4.00523 49.916 5.02617 49.916 5.19633 49.916C5.02617 49.916 3.83507 49.916 3.66492 49.916C3.66492 50.0862 3.66492 51.1071 3.66492 51.2773C3.66492 51.4474 3.66492 51.4474 3.66492 51.4474L3.83507 51.6176C3.83507 51.6176 4.17539 51.4474 4.34554 51.4474C4.5157 51.4474 4.68586 51.4474 4.68586 51.4474H5.7068C6.04711 51.4474 6.21727 51.4474 6.38743 51.2773C6.38743 51.1071 6.38743 49.916 6.38743 49.7458C6.21727 49.7458 5.87696 49.7458 5.7068 49.7458L5.19633 49.916Z" fill="#775917"/>
<path fill-rule="evenodd" clip-rule="evenodd" d="M10.9817 51.2773V49.916C11.1518 49.916 11.1518 49.7458 11.1518 49.7458C11.6623 49.7458 11.8325 49.7458 12.3429 49.7458C12.5131 49.7458 12.5131 49.7458 12.5131 49.7458C12.6833 49.7458 12.8534 49.7458 12.8534 49.7458C13.0236 49.7458 13.534 49.5757 13.534 49.5757V51.1071C13.534 51.1071 13.3639 51.1071 13.1937 51.1071L13.0236 51.2773C12.8534 51.2773 12.5131 51.2773 12.3429 51.2773C12.1728 51.2773 11.8325 51.2773 11.6623 51.2773C11.4922 51.2773 11.322 51.2773 10.9817 51.2773ZM11.1518 49.7458H10.9817C10.9817 49.916 10.9817 49.916 10.9817 50.0862V50.9369C10.9817 51.1071 10.9817 51.2773 10.9817 51.2773C10.9817 51.2773 10.9817 51.2773 10.9817 51.4474H11.1518L12.0026 51.2773C12.0026 51.2773 12.1728 51.2773 12.3429 51.2773C12.5131 51.2773 12.6833 51.2773 13.0236 51.2773H13.534C13.7042 51.1071 13.534 51.1071 13.534 50.7668C13.534 50.5966 13.7042 49.7458 13.534 49.5757C13.3639 49.5757 11.4922 49.7458 11.1518 49.7458Z" fill="#977518"/>
<path fill-rule="evenodd" clip-rule="evenodd" d="M39.3978 51.7877C39.0575 51.7877 38.8873 51.7877 38.7172 51.7877C38.547 51.7877 38.3769 51.7877 38.2067 51.6175C38.0366 51.6175 37.6962 51.6175 37.5261 51.6175H37.0156V50.0861C37.0156 50.0861 39.0575 50.2563 39.3978 50.2563C39.0575 50.0861 38.8873 50.0861 38.7172 50.0861C38.547 50.0861 38.3769 50.0861 38.2067 50.0861C37.8664 50.0861 37.6962 50.0861 37.5261 50.0861C37.3559 50.0861 37.1858 49.916 37.0156 50.0861C36.8455 50.0861 36.8455 50.0861 36.8455 50.2563V51.6175C37.0156 51.6175 37.1858 51.6175 37.3559 51.6175C37.6962 51.6175 38.0366 51.7877 38.3769 51.7877C38.3769 51.7877 38.547 51.7877 38.8873 51.7877C39.0575 51.7877 39.2277 51.7877 39.3978 51.7877Z" fill="#493407"/>
<path fill-rule="evenodd" clip-rule="evenodd" d="M19.1491 59.2747C19.1491 59.4448 19.1491 59.4448 19.3193 59.4448V59.615C19.1491 59.7851 19.3193 59.9553 19.3193 59.9553C19.3193 60.1254 19.3193 59.9553 19.3193 60.1254H19.1491C18.979 60.1254 18.979 60.1254 18.8088 60.1254C18.8088 60.1254 18.979 60.1254 18.8088 60.1254C18.8088 60.2956 18.6387 60.1254 18.6387 60.1254C18.6387 60.1254 18.4685 60.1254 18.6387 59.9553C18.6387 59.7851 18.4685 59.615 18.6387 59.615C18.6387 59.4448 18.6387 59.4448 18.6387 59.4448C18.8088 59.2747 18.8088 59.4448 18.979 59.4448C18.979 59.4448 19.1491 59.4448 19.1491 59.2747C18.979 59.2747 18.979 59.4448 18.8088 59.4448C18.8088 59.2747 18.8088 59.2747 18.6387 59.2747C18.6387 59.2747 18.8088 59.4448 18.6387 59.4448C18.4685 59.615 18.6387 59.615 18.4685 59.615C18.6387 59.7851 18.6387 59.7851 18.4685 59.9553C18.4685 60.1254 18.4685 59.9553 18.4685 60.1254C18.6387 60.1254 18.4685 60.1254 18.6387 60.1254C18.6387 60.2956 18.6387 60.1254 18.6387 60.2956C18.8088 60.2956 18.8088 60.1254 18.979 60.1254C18.979 60.2956 18.979 60.2956 18.979 60.2956C19.1491 60.2956 18.979 60.2956 19.1491 60.2956C19.1491 60.1254 19.3193 60.1254 19.3193 60.1254H19.4894C19.4894 59.9553 19.4894 59.9553 19.4894 59.9553C19.3193 59.7851 19.3193 59.7851 19.3193 59.7851C19.4894 59.615 19.3193 59.7851 19.4894 59.615C19.4894 59.615 19.4894 59.615 19.3193 59.615C19.3193 59.4448 19.3193 59.4448 19.3193 59.4448C19.1491 59.4448 19.1491 59.4448 19.1491 59.2747Z" fill="#C59C35"/>
<path fill-rule="evenodd" clip-rule="evenodd" d="M23.0627 69.9945L23.5732 69.4841C23.7434 69.3139 23.2329 69.4841 23.0627 69.4841C22.8926 69.6542 22.8926 69.6542 22.8926 69.6542C22.8926 69.8244 22.8926 69.9945 22.8926 69.9945C23.0627 69.9945 22.8926 69.9945 23.0627 69.9945Z" fill="#EA8F4E"/>
<path fill-rule="evenodd" clip-rule="evenodd" d="M27.657 49.916H27.8271V49.7458C27.8271 49.7458 27.8271 49.7458 27.8271 49.5757C27.8271 49.5757 27.9973 49.5757 27.9973 49.7458C27.9973 49.916 27.9973 50.0861 27.9973 50.2563C27.9973 50.2563 27.9973 50.2563 27.8271 50.4265C27.8271 50.4265 27.8271 50.4265 27.8271 50.5966C27.9973 50.5966 27.9973 50.4265 28.1674 50.4265C28.1674 50.2563 28.1674 50.0861 28.1674 49.916C28.1674 49.7458 28.1674 49.7458 28.1674 49.5757H27.9973C28.1674 49.4055 28.1674 49.5757 28.1674 49.5757C28.3376 49.5757 28.3376 49.5757 28.5078 49.5757C28.5078 49.5757 28.5078 49.4055 28.6779 49.4055C28.5078 49.4055 28.5078 49.5757 28.5078 49.5757C28.1674 49.5757 28.3376 49.5757 28.1674 49.5757C28.1674 49.4055 28.1674 49.4055 27.9973 49.4055V49.5757H27.8271V49.916C27.657 49.916 27.657 49.916 27.4868 49.916H27.657Z" fill="#D79C12"/>
<path fill-rule="evenodd" clip-rule="evenodd" d="M2.98428 51.1071C2.98428 51.2773 2.98428 51.2773 2.98428 51.2773C2.81412 51.2773 2.81412 51.2773 2.81412 51.2773C2.64396 51.2773 2.64396 51.4474 2.64396 51.4474C2.64396 51.6176 2.47381 51.4474 2.47381 51.6176V51.7877C2.30365 51.7877 2.30365 51.4474 2.13349 51.4474C1.96333 51.4474 1.79318 51.6176 1.79318 51.7877C1.79318 51.7877 1.79318 51.7877 1.62302 51.7877C1.62302 51.7877 1.79318 51.6176 1.62302 51.6176C1.62302 51.4474 1.45286 51.6176 1.45286 51.4474V51.2773C1.28271 51.2773 1.28271 51.2773 1.11255 51.2773C1.11255 51.2773 1.28271 51.1071 1.45286 51.1071C1.45286 50.937 1.45286 51.1071 1.45286 50.937V50.7668C1.28271 50.7668 1.28271 50.5966 1.28271 50.5966C1.11255 50.5966 1.11255 50.5966 1.11255 50.5966C1.28271 50.4265 1.11255 50.4265 1.28271 50.4265C1.28271 50.4265 1.28271 50.5966 1.45286 50.4265V50.2563C1.45286 50.2563 1.45286 50.2563 1.62302 50.2563C1.79318 50.0862 1.62302 50.0862 1.62302 49.916C1.79318 49.916 1.79318 50.2563 1.96333 50.2563H2.13349C1.96333 50.2563 1.96333 50.2563 1.96333 50.0862L1.79318 49.916C1.62302 49.916 1.62302 50.0862 1.62302 50.2563H1.45286V50.4265H1.11255C1.11255 50.5966 1.11255 50.5966 1.11255 50.5966C1.28271 50.7668 1.45286 50.7668 1.45286 50.937C1.45286 50.937 1.28271 51.1071 1.11255 51.1071C1.11255 51.2773 1.11255 51.2773 1.11255 51.2773H1.45286C1.45286 51.6176 1.28271 51.6176 1.62302 51.6176V51.7877C1.62302 51.7877 1.62302 51.7877 1.79318 51.7877C1.96333 51.6176 1.96333 51.6176 2.13349 51.6176C2.30365 51.6176 2.30365 51.7877 2.47381 51.7877C2.47381 51.7877 2.47381 51.7877 2.47381 51.6176H2.81412V51.2773H2.98428C3.15443 51.2773 2.98428 51.2773 2.98428 51.2773C2.98428 51.1071 2.98428 51.2773 2.98428 51.1071Z" fill="#5A4614"/>
<path fill-rule="evenodd" clip-rule="evenodd" d="M23.9136 69.1437C24.0837 69.1437 23.9136 69.1437 24.0837 68.9735C24.2539 68.9735 24.2539 68.6332 24.2539 68.6332C24.2539 68.4631 24.0837 68.4631 24.0837 68.6332H23.9136C23.9136 68.6332 23.7434 68.8034 23.7434 68.9735C23.7434 68.9735 23.7434 68.9735 23.9136 69.1437Z" fill="#EA8F4E"/>
<path fill-rule="evenodd" clip-rule="evenodd" d="M27.657 49.916V50.0862H27.8271C27.8271 50.2563 27.8271 50.2563 27.8271 50.4265C27.9973 50.2563 27.9973 50.2563 27.9973 50.2563C27.9973 50.0862 27.9973 49.916 27.9973 49.7458C27.9973 49.5757 27.8271 49.5757 27.8271 49.5757C27.8271 49.7458 27.8271 49.7458 27.8271 49.7458V49.916H27.657Z" fill="#F4B523"/>
<path fill-rule="evenodd" clip-rule="evenodd" d="M22.7225 70.505C22.7225 70.3349 22.5523 70.3349 22.5523 70.3349C22.5523 70.1647 22.5523 69.9946 22.5523 69.9946C22.5523 69.8244 22.3822 69.8244 22.3822 69.9946C22.3822 70.1647 22.5523 69.9946 22.212 70.1647C22.212 70.1647 22.212 70.1647 22.3822 70.3349C22.3822 70.505 22.3822 70.3349 22.3822 70.3349C22.5523 70.505 22.3822 70.505 22.3822 70.505C22.5523 70.505 22.5523 70.505 22.7225 70.505Z" fill="#CC7A42"/>
<path fill-rule="evenodd" clip-rule="evenodd" d="M39.3979 70.8454V70.5051L38.5471 70.8454H39.3979Z" fill="#ECECEC"/>
<path fill-rule="evenodd" clip-rule="evenodd" d="M34.4633 51.2773C34.2931 51.2773 34.4633 51.2773 34.2931 51.2773C34.123 51.2773 34.123 51.2773 33.9528 51.2773C33.9528 51.1072 33.9528 50.937 33.9528 50.937H33.7826C33.7826 50.937 33.7826 50.937 33.9528 50.7668C33.7826 50.7668 33.7826 50.937 33.7826 50.937C33.6125 50.937 33.6125 50.937 33.7826 51.1072C33.9528 50.937 33.9528 50.937 33.9528 51.1072C33.9528 51.2773 33.9528 51.2773 34.2931 51.2773V51.6176L34.4633 51.2773Z" fill="#AC8A35"/>
<path fill-rule="evenodd" clip-rule="evenodd" d="M20.3402 0.740723L33.102 24.3926L20.3402 16.5653L6.89783 24.2224L20.3402 0.740723Z" fill="#FF0000"/>
</svg>
