<svg width="240" height="240" viewBox="0 0 240 240" fill="none" xmlns="http://www.w3.org/2000/svg">
<mask id="mask0_39_189" style="mask-type:alpha" maskUnits="userSpaceOnUse" x="0" y="0" width="240" height="240">
<circle cx="120" cy="120" r="120" fill="#C4C4C4" fill-opacity="0.45"/>
</mask>
<g mask="url(#mask0_39_189)">
<path fill-rule="evenodd" clip-rule="evenodd" d="M176.151 13.3774C214.075 33.5283 240 73.4906 240 119.453C240 185.679 186.226 239.453 120 239.453C53.6604 239.453 0 185.679 0 119.453C0 73.4906 25.9245 33.5283 63.8491 13.3774C74.4906 -8.81132 91.6981 -24.434 111.623 -27.8302C111.623 -27.8302 112.755 -42.5472 120.113 -55C120.113 -55 126.792 -43.566 127.925 -27.8302C148.075 -24.5472 165.396 -8.92453 176.151 13.3774Z" fill="#0b5f0e"/>
<path d="M120 222.584C176.958 222.584 223.132 176.411 223.132 119.452C223.132 62.4941 176.958 16.3203 120 16.3203C63.0417 16.3203 16.8679 62.4941 16.8679 119.452C16.8679 176.411 63.0417 222.584 120 222.584Z" fill="white" stroke="#E7F9F1" stroke-width="1.49966"/>
<path d="M35.2075 136.774C37.9244 150.472 43.9244 163.038 52.415 173.566C64.3018 188.51 81.0565 199.491 100.755 204.019L99.9622 207.642C79.3584 203 61.8112 191.566 49.4716 175.944C40.415 164.736 34.1886 151.264 31.3584 136.774H35.2075ZM31.4716 101.906C34.3018 87.5285 40.5282 74.2832 49.4716 63.1888C61.8112 47.5662 79.3584 36.1322 99.9622 31.4907L100.755 35.1134C81.0565 39.6417 64.3018 50.6228 52.415 65.5662C44.0376 75.9813 38.0376 88.4341 35.3207 101.906H31.4716ZM205.585 101.906C202.755 88.4341 196.868 75.9813 188.49 65.5662C176.604 50.6228 159.736 39.6417 140.151 35.1134L140.943 31.4907C161.434 36.1322 178.981 47.5662 191.434 63.1888C200.377 74.2832 206.604 87.5285 209.434 101.906H205.585ZM209.547 136.774C206.717 151.264 200.49 164.736 191.434 175.944C178.981 191.566 161.434 203 140.943 207.642L140.151 204.019C159.736 199.491 176.604 188.51 188.49 173.566C196.981 163.038 202.868 150.472 205.698 136.774H209.547Z" fill="#67C19F"/>
<path d="M126.39 25.7207V40.2661H124.685L116.759 28.8457H116.617V40.2661H114.856V25.7207H116.56L124.515 37.1695H124.657V25.7207H126.39Z" fill="#FF0000"/>
<path d="M122.81 201.66C122.725 200.94 122.379 200.381 121.773 199.983C121.167 199.586 120.424 199.387 119.543 199.387C118.899 199.387 118.336 199.491 117.853 199.699C117.375 199.908 117.001 200.194 116.731 200.559C116.466 200.923 116.333 201.338 116.333 201.802C116.333 202.19 116.425 202.524 116.61 202.803C116.799 203.078 117.041 203.307 117.334 203.492C117.628 203.672 117.936 203.821 118.258 203.939C118.58 204.053 118.876 204.145 119.145 204.216L120.623 204.614C121.002 204.713 121.423 204.851 121.887 205.026C122.356 205.201 122.803 205.44 123.229 205.743C123.66 206.042 124.015 206.425 124.295 206.894C124.574 207.363 124.714 207.938 124.714 208.62C124.714 209.406 124.508 210.116 124.096 210.75C123.689 211.385 123.092 211.889 122.306 212.263C121.525 212.637 120.575 212.824 119.458 212.824C118.416 212.824 117.514 212.656 116.752 212.32C115.994 211.984 115.398 211.515 114.962 210.914C114.531 210.312 114.288 209.614 114.231 208.819H116.049C116.096 209.368 116.281 209.822 116.603 210.182C116.93 210.537 117.342 210.803 117.839 210.978C118.341 211.148 118.88 211.233 119.458 211.233C120.13 211.233 120.734 211.124 121.269 210.907C121.804 210.684 122.228 210.376 122.54 209.983C122.853 209.586 123.009 209.122 123.009 208.591C123.009 208.108 122.874 207.715 122.604 207.412C122.334 207.109 121.979 206.863 121.539 206.674C121.099 206.484 120.623 206.319 120.111 206.177L118.322 205.665C117.185 205.338 116.286 204.872 115.623 204.266C114.96 203.66 114.628 202.867 114.628 201.887C114.628 201.072 114.849 200.362 115.289 199.756C115.734 199.145 116.331 198.672 117.079 198.336C117.832 197.995 118.672 197.824 119.6 197.824C120.538 197.824 121.371 197.992 122.1 198.329C122.829 198.66 123.407 199.115 123.833 199.692C124.264 200.27 124.491 200.926 124.515 201.66H122.81Z" fill="black"/>
<path d="M39.8434 125.362L25.2979 129.34L25.2979 127.55L37.1445 124.51V124.368L25.2979 121.272L25.2979 119.283L37.1445 116.186L37.1445 116.044L25.2979 113.005L25.2979 111.215L39.8434 115.192L39.8434 117.01L28.2525 120.22L28.2525 120.334L39.8434 123.544L39.8434 125.362Z" fill="black"/>
<path d="M204.069 116.789L218.615 116.789L218.615 125.567L217.052 125.567L217.052 118.55L212.138 118.55L212.138 125.113L210.575 125.113L210.575 118.55L205.632 118.55L205.632 125.681L204.069 125.681L204.069 116.789Z" fill="black"/>
</g>
</svg>
