<svg width="359" height="365" viewBox="0 0 359 365" fill="none" xmlns="http://www.w3.org/2000/svg">
<g style="mix-blend-mode:soft-light" opacity="0.5">
<path d="M0 143.07H106.3C106.3 143.07 98.7 119.77 85.9 123.17C73.1 126.47 73.6 129.37 73.6 129.37C73.6 129.37 69.8 109.47 52.7 112.27C35.6 115.07 31.8 128.87 31.8 128.87C31.8 128.87 20.9 124.57 16.1 128.87C11.4 133.17 12.3 135.47 12.3 135.47C12.3 135.47 1.9 130.77 0 143.07Z" fill="white"/>
</g>
<g style="mix-blend-mode:soft-light" opacity="0.8">
<path d="M281 100.216C279.8 96.8161 277.1 90.9161 272.9 89.5161C266.9 87.5161 258 94.1161 258 94.1161C258 94.1161 253.7 78.6161 239.3 78.0161C224.9 77.4161 227.5 93.8161 227.5 93.8161C227.5 93.8161 223.8 92.7161 216.3 90.4161C208.8 88.1161 206.2 95.0161 206.2 95.0161C201.5 93.3161 199.6 97.8161 199 100.216H281Z" fill="white"/>
</g>
<path d="M57.7 0C57.7 0 57.5 2.6 55 2.9C57.5 3.2 57.7 5.8 57.7 5.8C57.7 5.8 57.9 3.2 60.4 2.9C57.9 2.7 57.7 0 57.7 0Z" fill="#FFD08A"/>
<path d="M191.7 41C191.7 41 191.5 43.6 189 43.9C191.5 44.2 191.7 46.8 191.7 46.8C191.7 46.8 191.9 44.2 194.4 43.9C191.9 43.7 191.7 41 191.7 41Z" fill="#FFD08A"/>
<path d="M93.7 31C93.7 31 93.5 33.6 91 33.9C93.5 34.2 93.7 36.8 93.7 36.8C93.7 36.8 93.9 34.2 96.4 33.9C93.9 33.7 93.7 31 93.7 31Z" fill="#FFD08A"/>
<path d="M313.7 100C313.7 100 313.5 102.6 311 102.9C313.5 103.2 313.7 105.8 313.7 105.8C313.7 105.8 313.9 103.2 316.4 102.9C313.8 102.7 313.7 100 313.7 100Z" fill="#FFD08A"/>
<path d="M197.3 159.6C197.3 159.6 197.1 162.2 194.6 162.5C197.1 162.8 197.3 165.4 197.3 165.4C197.3 165.4 197.5 162.8 200 162.5C197.4 162.3 197.3 159.6 197.3 159.6Z" fill="#FFD08A"/>
<path d="M153.1 70C153.1 70 152.6 77 146 77.6C152.6 78.3 153.1 85.2 153.1 85.2C153.1 85.2 153.6 78.2 160.2 77.6C153.6 77 153.1 70 153.1 70Z" fill="#FFD08A"/>
<path d="M29.1 58.7C29.1 58.7 28.6 65.7 22 66.3C28.6 67 29.1 73.9 29.1 73.9C29.1 73.9 29.6 66.9 36.2 66.3C29.6 65.7 29.1 58.7 29.1 58.7Z" fill="#FFD08A"/>
<path d="M146.2 0C146.2 0 145.8 5.1 141 5.6C145.8 6.1 146.2 11.2 146.2 11.2C146.2 11.2 146.6 6.1 151.4 5.6C146.6 5 146.2 0 146.2 0Z" fill="#FFD08A"/>
<path d="M72.6 95C72.6 95 72.3 99.5 68 100C72.3 100.4 72.6 105 72.6 105C72.6 105 72.9 100.5 77.2 100C73 99.5 72.6 95 72.6 95Z" fill="#FFD08A"/>
<path d="M113.5 194.9C113.5 194.9 113.2 199.4 108.9 199.9C113.2 200.3 113.5 204.9 113.5 204.9C113.5 204.9 113.8 200.4 118.1 199.9C113.8 199.4 113.5 194.9 113.5 194.9Z" fill="#FFD08A"/>
<g style="mix-blend-mode:soft-light" opacity="0.5">
<path d="M251.8 168.5H358.1C358.1 168.5 350.5 145.2 337.7 148.6C324.9 151.9 325.4 154.8 325.4 154.8C325.4 154.8 321.6 134.9 304.5 137.7C287.4 140.5 283.6 154.3 283.6 154.3C283.6 154.3 272.7 150 267.9 154.3C263.2 158.6 264.1 160.9 264.1 160.9C264.1 160.9 253.7 156.2 251.8 168.5Z" fill="white"/>
</g>
<path opacity="0.25" d="M172.9 364.8C242.433 364.8 298.8 351.682 298.8 335.5C298.8 319.318 242.433 306.2 172.9 306.2C103.367 306.2 47 319.318 47 335.5C47 351.682 103.367 364.8 172.9 364.8Z" fill="#042030"/>
<path d="M271.5 194.1L172.9 227.8L74.2 194.1L27 262.7L172.9 312.6L318.7 262.7L271.5 194.1Z" fill="#0b5f0e"/>
<path opacity="0.45" d="M44.2 259.9L165.2 306.2L123.6 265C123.6 265 55.3 248.5 44.2 259.9Z" fill="#0D2E21"/>
<path opacity="0.45" d="M301.6 259.9L180.6 306.2L222.2 265C222.1 265 290.4 248.5 301.6 259.9Z" fill="#0D2E21"/>
<path d="M172.9 312.6L27 262.7V269.2L172.9 319.1L318.7 269.2V262.7L172.9 312.6Z" fill="#67C19F"/>
<path d="M95.2 342.6L112.1 298.3L166.5 316.9L95.2 342.6Z" fill="#0b5f0e"/>
<path opacity="0.45" d="M99.8999 329.8L166.5 316.9L112.1 298.3L99.8999 329.8Z" fill="#0b5f0e"/>
<path d="M172.9 314.6L95.2 342.6L101 348.7L172.9 323.1L244.7 348.7L250.6 342.6L172.9 314.6Z" fill="#67C19F"/>
<path d="M250.6 342.6L233.6 298.3L179.2 316.9L250.6 342.6Z" fill="#0b5f0e"/>
<path opacity="0.45" d="M245.8 329.8L179.2 316.9L233.6 298.3L245.8 329.8Z" fill="#0b5f0e"/>
<path d="M172.9 323.1C175.827 323.1 178.2 320.727 178.2 317.8C178.2 314.873 175.827 312.5 172.9 312.5C169.973 312.5 167.6 314.873 167.6 317.8C167.6 320.727 169.973 323.1 172.9 323.1Z" fill="white" fill-opacity="0.5"/>
<path d="M267.3 194.1L172.9 241.1L78.5 194.1C74.2 199.8 39.6 257.5 39.6 257.5C40 257.5 40.3 257.6 40.7 257.6C127.5 266.3 151.6 293.6 159.6 300.2C167.6 306.9 173 306.2 173 306.2C173 306.2 178.4 306.9 186.4 300.2C194.4 293.6 218.5 266.3 305.3 257.6C305.7 257.6 306 257.5 306.4 257.5C306.2 257.5 271.5 199.9 267.3 194.1Z" fill="#F5B304"/>
<path d="M306.2 257.5C305.8 257.5 305.5 257.6 305.1 257.6C218.3 266.3 194.2 293.6 186.2 300.2C178.2 306.9 172.8 306.2 172.8 306.2C172.8 306.2 167.4 306.9 159.4 300.2C151.4 293.6 127.3 266.3 40.5 257.6C40.1 257.6 39.8 257.5 39.4 257.5C38.7 258.6 39.4 259.4 39.4 259.4C127.1 267.9 150.4 295.3 158.4 302C166.4 308.6 172.7 308.1 172.7 308.1C172.7 308.1 179 308.6 187 302C195 295.4 218.3 268 306 259.4C306.2 259.4 306.9 258.6 306.2 257.5Z" fill="#67C19F"/>
<path d="M263.7 188.6C215.4 177 172.8 216.7 172.8 216.7C172.8 216.7 130.2 177 81.9 188.6C81.9 188.6 68.2 209.6 49.3 245.3C49.3 245.3 144.4 256 172.8 295.9C201.2 256 296.3 245.3 296.3 245.3C277.4 209.6 263.7 188.6 263.7 188.6Z" fill="#F5EFFB"/>
<path d="M296.3 245.3C296.3 245.3 201.2 256 172.8 295.9C144.5 256 49.4 245.3 49.4 245.3C49.4 245.3 49.4 248.5 44.1 254.8C44.1 254.8 130.4 261 161.8 296.8C169.2 305.2 172.8 304.2 172.8 304.2C172.8 304.2 176.5 305.2 183.8 296.8C215.1 261 301.5 254.8 301.5 254.8C296.3 248.4 296.3 245.3 296.3 245.3Z" fill="#DFCBF4"/>
<path d="M258.3 192.8C258.3 192.8 222.2 183.6 172.8 221.9C123.5 183.7 87.3 192.8 87.3 192.8L62.9 240.2C137.1 245.3 172.8 282.8 172.8 282.8C172.8 282.8 208.5 245.3 282.7 240.2L258.3 192.8ZM172.9 278.3C172.9 278.3 139.5 244.1 68.7 237.4L89.2 194.8C89.2 194.8 124.7 187.9 172.9 224.1C221.1 187.9 256.6 194.8 256.6 194.8L277.1 237.4C206.3 244.1 172.9 278.3 172.9 278.3Z" fill="#67C19F"/>
<path opacity="0.2" d="M182 257.594C195.333 247.76 237 226 265 229" stroke="#67C19F" stroke-width="3" stroke-linecap="round"/>
<path opacity="0.2" d="M182 230C193.833 220.735 224.6 202.581 253 204.088" stroke="#67C19F" stroke-width="3" stroke-linecap="round"/>
<path opacity="0.2" d="M182 244C194.833 234.022 228.2 214.472 259 216.095" stroke="#67C19F" stroke-width="3" stroke-linecap="round"/>
<path opacity="0.2" d="M165 257.594C151.667 247.76 110 226 82 229" stroke="#67C19F" stroke-width="3" stroke-linecap="round"/>
<path opacity="0.2" d="M165 230C153.167 220.735 122.4 202.581 94 204.088" stroke="#67C19F" stroke-width="3" stroke-linecap="round"/>
<path opacity="0.2" d="M165 244C152.167 234.022 118.8 214.472 88 216.095" stroke="#67C19F" stroke-width="3" stroke-linecap="round"/>
<path d="M172.9 216.7C172.9 216.7 173.9 213.2 175.8 214.2C175.8 214.2 174.6 270.9 176.6 293C177.1 298.5 181.9 306 183.8 308.8H181.3L180.6 311.1C180.6 311.1 173.2 298.6 172.9 293.7C171.4 271.7 172.2 222 172.9 216.7Z" fill="#54DAF5"/>
</svg>
