<svg width="24" height="24" viewBox="0 0 24 24" fill="none" xmlns="http://www.w3.org/2000/svg">
<path d="M5 21.0833C4.99993 21.1846 5.02623 21.2842 5.07633 21.3722C5.12643 21.4603 5.19859 21.5338 5.28571 21.5855C5.37283 21.6371 5.47191 21.6652 5.57319 21.667C5.67447 21.6688 5.77447 21.6441 5.86333 21.5955L12 18.2472L18.1367 21.5955C18.2255 21.6441 18.3255 21.6688 18.4268 21.667C18.5281 21.6652 18.6272 21.6371 18.7143 21.5855C18.8014 21.5338 18.8736 21.4603 18.9237 21.3722C18.9738 21.2842 19.0001 21.1846 19 21.0833V5.33333C19 4.71449 18.7542 4.121 18.3166 3.68342C17.879 3.24583 17.2855 3 16.6667 3H7.33333C6.7145 3 6.121 3.24583 5.68342 3.68342C5.24583 4.121 5 4.71449 5 5.33333V21.0833ZM12 8.145C13.6182 6.4825 17.663 9.39333 12 13.1348C6.337 9.39333 10.3818 6.48367 12 8.14733V8.145Z" fill="#0b5f0e"/>
</svg>
