<svg width="24" height="25" viewBox="0 0 24 25" fill="none" xmlns="http://www.w3.org/2000/svg">
<path d="M15.1008 1.30542C14.697 0.892193 14.2147 0.56384 13.6822 0.339662C13.1497 0.115483 12.5778 0 12 0C11.4222 0 10.8503 0.115483 10.3178 0.339662C9.7853 0.56384 9.30298 0.892193 8.89919 1.30542L7.96609 2.26252L6.63096 2.24602C6.05303 2.23918 5.47956 2.34797 4.94428 2.56598C4.40901 2.784 3.92272 3.10685 3.51404 3.51554C3.10535 3.92422 2.7825 4.41051 2.56448 4.94578C2.34647 5.48106 2.23768 6.05453 2.24452 6.63246L2.25952 7.96759L1.30542 8.90069C0.892193 9.30448 0.56384 9.7868 0.339662 10.3193C0.115483 10.8518 0 11.4237 0 12.0015C0 12.5793 0.115483 13.1512 0.339662 13.6837C0.56384 14.2162 0.892193 14.6985 1.30542 15.1023L2.26102 16.0354L2.24452 17.3705C2.23768 17.9485 2.34647 18.5219 2.56448 19.0572C2.7825 19.5925 3.10535 20.0788 3.51404 20.4875C3.92272 20.8962 4.40901 21.219 4.94428 21.437C5.47956 21.655 6.05303 21.7638 6.63096 21.757L7.96609 21.742L8.89919 22.6961C9.30298 23.1093 9.7853 23.4377 10.3178 23.6618C10.8503 23.886 11.4222 24.0015 12 24.0015C12.5778 24.0015 13.1497 23.886 13.6822 23.6618C14.2147 23.4377 14.697 23.1093 15.1008 22.6961L16.0339 21.7405L17.369 21.757C17.947 21.7638 18.5204 21.655 19.0557 21.437C19.591 21.219 20.0773 20.8962 20.486 20.4875C20.8947 20.0788 21.2175 19.5925 21.4355 19.0572C21.6535 18.5219 21.7623 17.9485 21.7555 17.3705L21.7405 16.0354L22.6946 15.1023C23.1078 14.6985 23.4362 14.2162 23.6603 13.6837C23.8845 13.1512 24 12.5793 24 12.0015C24 11.4237 23.8845 10.8518 23.6603 10.3193C23.4362 9.7868 23.1078 9.30448 22.6946 8.90069L21.739 7.96759L21.7555 6.63246C21.7623 6.05453 21.6535 5.48106 21.4355 4.94578C21.2175 4.41051 20.8947 3.92422 20.486 3.51554C20.0773 3.10685 19.591 2.784 19.0557 2.56598C18.5204 2.34797 17.947 2.23918 17.369 2.24602L16.0339 2.26102L15.1008 1.30692V1.30542ZM15.5314 10.2823L11.0309 14.7828C10.9612 14.8526 10.8785 14.9081 10.7873 14.9459C10.6962 14.9837 10.5985 15.0031 10.4998 15.0031C10.4012 15.0031 10.3035 14.9837 10.2124 14.9459C10.1212 14.9081 10.0385 14.8526 9.9688 14.7828L7.71857 12.5326C7.64883 12.4628 7.59351 12.38 7.55577 12.2889C7.51803 12.1978 7.4986 12.1001 7.4986 12.0015C7.4986 11.9029 7.51803 11.8052 7.55577 11.7141C7.59351 11.623 7.64883 11.5402 7.71857 11.4704C7.78831 11.4007 7.8711 11.3454 7.96222 11.3076C8.05334 11.2699 8.151 11.2505 8.24962 11.2505C8.34825 11.2505 8.44591 11.2699 8.53703 11.3076C8.62815 11.3454 8.71094 11.4007 8.78068 11.4704L10.4998 13.1911L14.4692 9.22022C14.6101 9.07938 14.8011 9.00025 15.0003 9.00025C15.1995 9.00025 15.3905 9.07938 15.5314 9.22022C15.6722 9.36106 15.7513 9.55209 15.7513 9.75127C15.7513 9.95046 15.6722 10.1415 15.5314 10.2823V10.2823Z" fill="#0b5f0e"/>
</svg>
