<svg width="14" height="14" viewBox="0 0 14 14" fill="none" xmlns="http://www.w3.org/2000/svg">
<path d="M2.63586 13.5479C2.34629 13.8374 1.95356 14.0001 1.54405 14.0001C1.13454 14.0001 0.741807 13.8374 0.452241 13.5479C0.162676 13.2583 0 12.8656 0 12.4561C0 12.2533 0.039938 12.0525 0.117534 11.8652C0.195129 11.6779 0.308863 11.5076 0.452241 11.3643L11.3641 0.453902C11.6535 0.164336 12.046 0.00157912 12.4554 0.00143442C12.8648 0.00128972 13.2574 0.16377 13.547 0.45313C13.8366 0.742491 13.9993 1.13503 13.9995 1.54439C13.9996 1.95375 13.8371 2.34641 13.5478 2.63597L2.63586 13.5463V13.5479Z" fill="#020202"/>
<path d="M0.452241 2.63586C0.308863 2.49248 0.195129 2.32226 0.117534 2.13493C0.039938 1.9476 1.51074e-09 1.74682 0 1.54405C-1.51073e-09 1.34128 0.039938 1.1405 0.117534 0.953167C0.195129 0.765834 0.308863 0.59562 0.452241 0.452241C0.59562 0.308863 0.765834 0.195129 0.953167 0.117534C1.1405 0.039938 1.34128 -1.51073e-09 1.54405 0C1.74682 1.51073e-09 1.9476 0.039938 2.13493 0.117534C2.32226 0.195129 2.49248 0.308863 2.63586 0.452241L13.5462 11.3641C13.8358 11.6535 13.9985 12.046 13.9987 12.4554C13.9988 12.8648 13.8363 13.2574 13.547 13.547C13.2576 13.8366 12.8651 13.9993 12.4557 13.9995C12.0464 13.9996 11.6537 13.8371 11.3641 13.5478L0.453784 2.63586H0.452241Z" fill="#020202"/>
</svg>
