<svg width="24" height="22" viewBox="0 0 24 22" fill="none" xmlns="http://www.w3.org/2000/svg">
<path fill-rule="evenodd" clip-rule="evenodd" d="M15.5313 8.45047C15.6011 8.51434 15.6566 8.59022 15.6944 8.67375C15.7322 8.75728 15.7517 8.84683 15.7517 8.93727C15.7517 9.02771 15.7322 9.11726 15.6944 9.20079C15.6566 9.28433 15.6011 9.3602 15.5313 9.42407L11.0308 13.5495C10.9612 13.6135 10.8784 13.6643 10.7873 13.699C10.6961 13.7336 10.5984 13.7515 10.4998 13.7515C10.4011 13.7515 10.3034 13.7336 10.2123 13.699C10.1212 13.6643 10.0384 13.6135 9.96873 13.5495L7.7185 11.4868C7.64877 11.4229 7.59345 11.347 7.5557 11.2634C7.51796 11.1799 7.49854 11.0904 7.49854 11C7.49854 10.9096 7.51796 10.8201 7.5557 10.7365C7.59345 10.653 7.64877 10.5771 7.7185 10.5132C7.78824 10.4493 7.87104 10.3985 7.96215 10.3639C8.05327 10.3293 8.15093 10.3115 8.24956 10.3115C8.34818 10.3115 8.44584 10.3293 8.53696 10.3639C8.62808 10.3985 8.71087 10.4493 8.78061 10.5132L10.4998 12.0905L14.4692 8.45047C14.5389 8.38644 14.6216 8.33564 14.7128 8.30098C14.8039 8.26632 14.9016 8.24847 15.0002 8.24847C15.0989 8.24847 15.1966 8.26632 15.2877 8.30098C15.3788 8.33564 15.4616 8.38644 15.5313 8.45047V8.45047Z" fill="#797575"/>
<path d="M15.4098 3.45462L14.0282 2.15649L15.1008 1.19664L16.0339 2.0726L17.369 2.05748C17.947 2.05121 18.5204 2.15093 19.0557 2.35078C19.591 2.55063 20.0773 2.84657 20.486 3.2212C20.8947 3.59583 21.2175 4.04159 21.4355 4.53226C21.6535 5.02293 21.7623 5.54861 21.7555 6.07838L21.7405 7.30225L22.6946 8.15759C23.1078 8.52774 23.4362 8.96986 23.6603 9.45799C23.8845 9.94611 24 10.4704 24 11C24 11.5296 23.8845 12.0539 23.6603 12.542C23.4362 13.0301 23.1078 13.4723 22.6946 13.8424L21.739 14.6977L21.7555 15.9216C21.7623 16.4514 21.6535 16.9771 21.4355 17.4677C21.2175 17.9584 20.8947 18.4042 20.486 18.7788C20.0773 19.1534 19.591 19.4494 19.0557 19.6492C18.5204 19.8491 17.947 19.9488 17.369 19.9425L16.0339 19.9288L15.1008 20.8034C14.697 21.1822 14.2147 21.4831 13.6822 21.6886C13.1497 21.8941 12.5778 22 12 22C11.4222 22 10.8503 21.8941 10.3178 21.6886C9.7853 21.4831 9.30298 21.1822 8.89919 20.8034L7.96609 19.9274L6.63096 19.9425C6.05303 19.9488 5.47956 19.8491 4.94428 19.6492C4.40901 19.4494 3.92272 19.1534 3.51404 18.7788C3.10535 18.4042 2.7825 17.9584 2.56448 17.4677C2.34647 16.9771 2.23768 16.4514 2.24452 15.9216L2.25952 14.6977L1.30542 13.8424C0.892193 13.4723 0.56384 13.0301 0.339662 12.542C0.115483 12.0539 0 11.5296 0 11C0 10.4704 0.115483 9.94611 0.339662 9.45799C0.56384 8.96986 0.892193 8.52774 1.30542 8.15759L2.26102 7.30225L2.24452 6.07838C2.23768 5.54861 2.34647 5.02293 2.56448 4.53226C2.7825 4.04159 3.10535 3.59583 3.51404 3.2212C3.92272 2.84657 4.40901 2.55063 4.94428 2.35078C5.47956 2.15093 6.05303 2.05121 6.63096 2.05748L7.96609 2.07123L8.89919 1.19664C9.30298 0.817844 9.7853 0.516854 10.3178 0.311356C10.8503 0.105859 11.4222 0 12 0C12.5778 0 13.1497 0.105859 13.6822 0.311356C14.2147 0.516854 14.697 0.817844 15.1008 1.19664L14.0282 2.15649C13.7641 1.90867 13.4487 1.71175 13.1003 1.5773C12.752 1.44285 12.3779 1.37359 12 1.37359C11.6221 1.37359 11.248 1.44285 10.8997 1.5773C10.5513 1.71175 10.2359 1.90867 9.9718 2.15649L8.59166 3.45462L6.61146 3.43261C6.23369 3.42874 5.85888 3.49412 5.50906 3.6249C5.15924 3.75568 4.84146 3.94922 4.57439 4.19417C4.30732 4.43911 4.09634 4.73051 3.95385 5.05125C3.81137 5.37198 3.74025 5.71559 3.74467 6.06188L3.76867 7.87431L2.35253 9.14081C2.08218 9.38289 1.86736 9.67207 1.72069 9.99135C1.57402 10.3106 1.49846 10.6536 1.49846 11C1.49846 11.3464 1.57402 11.6894 1.72069 12.0087C1.86736 12.3279 2.08218 12.6171 2.35253 12.8592L3.76867 14.1243L3.74467 15.9395C3.74045 16.2858 3.81176 16.6294 3.95443 16.95C4.0971 17.2707 4.30824 17.562 4.57545 17.8068C4.84266 18.0516 5.16056 18.245 5.51045 18.3756C5.86035 18.5062 6.23519 18.5714 6.61296 18.5674L8.59016 18.5454L9.9718 19.8435C10.2359 20.0913 10.5513 20.2883 10.8997 20.4227C11.248 20.5571 11.6221 20.6264 12 20.6264C12.3779 20.6264 12.752 20.5571 13.1003 20.4227C13.4487 20.2883 13.7641 20.0913 14.0282 19.8435L15.4083 18.5454L17.3885 18.5674C17.7663 18.5713 18.1411 18.5059 18.4909 18.3751C18.8408 18.2443 19.1585 18.0508 19.4256 17.8058C19.6927 17.5609 19.9037 17.2695 20.0461 16.9488C20.1886 16.628 20.2598 16.2844 20.2553 15.9381L20.2313 14.1257L21.6475 12.8592C21.9178 12.6171 22.1326 12.3279 22.2793 12.0087C22.426 11.6894 22.5015 11.3464 22.5015 11C22.5015 10.6536 22.426 10.3106 22.2793 9.99135C22.1326 9.67207 21.9178 9.38289 21.6475 9.14081L20.2313 7.87569L20.2553 6.0605C20.2596 5.71421 20.1882 5.37064 20.0456 5.04997C19.9029 4.7293 19.6918 4.438 19.4245 4.19319C19.1573 3.94837 18.8394 3.75498 18.4896 3.62437C18.1397 3.49376 17.7648 3.42856 17.387 3.43261L15.4098 3.45462V3.45462Z" fill="#797575"/>
</svg>
