<svg width="35" height="35" viewBox="0 0 35 35" fill="none" xmlns="http://www.w3.org/2000/svg">
<g clip-path="url(#clip0_22_188)">
<path d="M26.7182 4.61298L23.4704 5.91215L22.8356 4.46045L21.3947 4.61656C19.9489 4.77262 18.6898 5.29504 17.4858 6.24579C16.2815 5.29271 15.0313 4.77077 13.6053 4.61651L12.1639 4.46045L11.5296 5.91215L8.2811 4.61298L2.1875 18.8314L5.82613 20.219V30.5391L17.485 24.7098L29.144 30.5391V20.2286L32.8125 18.8318L26.7182 4.61298ZM7.61985 27.637V20.9037L15.2586 23.8177L7.61985 27.637ZM16.5883 22.4048L4.57188 17.8208L9.24022 6.92797L10.8101 7.55633L6.80021 16.7273L16.5882 20.4917L16.5883 22.4048ZM16.5883 18.5694L9.83322 15.9717C10.9872 15.3819 12.3576 15.3055 13.6083 15.8144L16.5882 17.1189L16.5883 18.5694ZM16.5883 15.161L14.2971 14.1581C12.8777 13.577 11.3466 13.5371 9.9571 13.9843L13.28 6.3857C13.4646 6.43271 14.888 6.38737 16.5883 7.83016V15.161ZM18.3818 7.83129C20.0503 6.42266 21.6253 6.4098 21.72 6.38576L25.0291 13.9548C23.7198 13.5375 22.2962 13.5938 20.9169 14.1581L18.3818 15.1962V7.83129ZM18.3818 17.1346L21.5961 15.8184C22.8115 15.3205 24.0798 15.3857 25.1805 15.9644L18.3818 18.5713V17.1346ZM27.3502 27.6369L19.7134 23.8184L27.3502 20.9112V27.6369ZM18.3818 22.406V20.4921L28.1997 16.728L24.1892 7.55633L25.7593 6.92803L30.4276 17.8203L18.3818 22.406Z" fill="#0b5f0e"/>
</g>
<defs>
<clipPath id="clip0_22_188">
<rect width="30.625" height="30.625" fill="white" transform="translate(2.1875 2.1875)"/>
</clipPath>
</defs>
</svg>
