<svg width="35" height="35" viewBox="0 0 35 35" fill="none" xmlns="http://www.w3.org/2000/svg">
<g clip-path="url(#clip0_22_192)">
<path d="M31.7188 3.28125H30.8856C29.526 3.28125 28.3161 3.93665 27.5553 4.94751H27.5531C26.1917 4.94751 24.981 5.60402 24.2206 6.61655V6.61377C21.9234 6.61377 20.0549 8.48265 20.0549 10.7794V14.7867L17.5 17.3063L14.9451 14.7867V10.7794C14.9451 8.48265 13.0766 6.61377 10.7794 6.61377V6.61655C10.019 5.60402 8.80834 4.94751 7.4469 4.94751H7.44468C6.68392 3.93665 5.47405 3.28125 4.11438 3.28125H3.28125V16.3681L9.18431 23.3875H8.28003V31.7188H26.72V23.3875H25.8157L31.7188 16.3681V3.28125ZM13.2788 10.7794V13.3044C12.7705 12.9976 12.2023 12.8035 11.6125 12.7351V9.11316C11.6125 8.871 11.5904 8.63328 11.5509 8.40222C12.5525 8.72825 13.2788 9.67025 13.2788 10.7794ZM8.28003 6.75651C9.24979 7.10043 9.94629 8.02681 9.94629 9.11316V12.8744C9.54964 12.9906 9.1726 13.1654 8.82767 13.3932L8.28003 12.8461V6.75651ZM16.6669 30.0525H9.94629V25.0537H16.6669V30.0525ZM16.6669 23.3875H11.3615L4.94751 15.761V5.09031C5.91727 5.43406 6.61377 6.3605 6.61377 7.4469V13.5365L11.8564 18.7792L13.035 17.6011L10.0468 14.6129C10.3789 14.4534 10.7449 14.3697 11.1244 14.3697C11.792 14.3697 12.4196 14.6296 12.8917 15.1017L16.6669 18.8248V23.3875ZM25.0537 9.11316C25.0537 8.02681 25.7502 7.10043 26.72 6.75651V12.8461L26.1723 13.3932C25.8274 13.1654 25.4504 12.9906 25.0537 12.8744V9.11316ZM21.7212 10.7794C21.7212 9.6703 22.4476 8.72825 23.4491 8.40222C23.4085 8.63704 23.3879 8.87486 23.3875 9.11316V12.7351C22.7977 12.8035 22.2295 12.9976 21.7212 13.3044V10.7794ZM25.0537 30.0525H18.3331V25.0537H25.0537V30.0525ZM30.0525 15.761L23.6385 23.3875H18.3331V18.8248L22.1083 15.1017C22.5804 14.6296 23.208 14.3697 23.8756 14.3697C24.2551 14.3697 24.6211 14.4534 24.9532 14.6129L21.9651 17.6011L23.1436 18.7792L28.3862 13.5366V7.4469C28.3862 6.36055 29.0827 5.43417 30.0525 5.09025V15.761Z" fill="#0b5f0e"/>
<path d="M21.7212 26.72H23.3874V28.3862H21.7212V26.72Z" fill="#0b5f0e"/>
<path d="M11.6125 26.72H13.2788V28.3862H11.6125V26.72Z" fill="#0b5f0e"/>
</g>
<defs>
<clipPath id="clip0_22_192">
<rect width="28.4375" height="28.4375" fill="white" transform="translate(3.28125 3.28125)"/>
</clipPath>
</defs>
</svg>
