<svg width="25" height="25" viewBox="0 0 25 25" fill="none" xmlns="http://www.w3.org/2000/svg">
<path d="M1.24976 13.7505H2.49979V22.5007C2.49979 23.8795 3.62106 25.0008 4.99984 25.0008H20.0002C21.3789 25.0008 22.5002 23.8795 22.5002 22.5007V13.7505H23.7502C23.9974 13.7505 24.2391 13.6772 24.4446 13.5398C24.6501 13.4024 24.8103 13.2072 24.9049 12.9788C24.9995 12.7505 25.0242 12.4992 24.976 12.2567C24.9278 12.0143 24.8088 11.7916 24.634 11.6167L13.3838 0.366509C13.2678 0.250325 13.13 0.15815 12.9784 0.0952605C12.8267 0.0323708 12.6642 0 12.5 0C12.3358 0 12.1733 0.0323708 12.0216 0.0952605C11.87 0.15815 11.7322 0.250325 11.6162 0.366509L0.365991 11.6167C0.191226 11.7916 0.0722153 12.0143 0.0240049 12.2567C-0.0242056 12.4992 0.0005487 12.7505 0.0951383 12.9788C0.189728 13.2072 0.349906 13.4024 0.555422 13.5398C0.760939 13.6772 1.00257 13.7505 1.24976 13.7505ZM9.99995 22.5007V16.2506H15.0001V22.5007H9.99995ZM12.5 3.01782L20.0002 10.518V16.2506L20.0014 22.5007H17.5001V16.2506C17.5001 14.8718 16.3788 13.7505 15.0001 13.7505H9.99995C8.62117 13.7505 7.49989 14.8718 7.49989 16.2506V22.5007H4.99984V10.518L12.5 3.01782Z" fill="#0b5f0e"/>
</svg>
