<svg width="35" height="35" viewBox="0 0 35 35" fill="none" xmlns="http://www.w3.org/2000/svg">
<path d="M17.5 2.1875C9.04395 2.1875 2.1875 9.04395 2.1875 17.5C2.1875 25.9561 9.04395 32.8125 17.5 32.8125C25.9561 32.8125 32.8125 25.9561 32.8125 17.5C32.8125 9.04395 25.9561 2.1875 17.5 2.1875ZM17.5 30.2148C10.4795 30.2148 4.78516 24.5205 4.78516 17.5C4.78516 10.4795 10.4795 4.78516 17.5 4.78516C24.5205 4.78516 30.2148 10.4795 30.2148 17.5C30.2148 24.5205 24.5205 30.2148 17.5 30.2148ZM24.2813 10.1138C24.1474 10.0615 24.0045 10.036 23.8608 10.039C23.7172 10.0419 23.5755 10.0731 23.4438 10.1309L14.1812 14.1846L10.1309 23.4473C10.0078 23.7275 10.0078 24.0454 10.1309 24.3257C10.2471 24.5923 10.4624 24.8008 10.7358 24.9067C10.8657 24.958 10.999 24.9819 11.1357 24.9819C11.2861 24.9819 11.4331 24.9512 11.5732 24.8896L20.8359 20.8359L24.8862 11.5732C24.9453 11.4381 24.9765 11.2923 24.9779 11.1448C24.9793 10.9973 24.9509 10.851 24.8945 10.7147C24.838 10.5784 24.7545 10.4549 24.6492 10.3517C24.5438 10.2484 24.4187 10.1675 24.2813 10.1138V10.1138ZM19.7148 18.2656L20.6104 19.1611L19.1611 20.6104L18.2656 19.7148L12.9883 22.0254L15.2954 16.748L14.4238 15.873L15.873 14.4238L16.7446 15.2954L22.0254 12.9883L19.7148 18.2656ZM15.873 14.4238L14.4238 15.873L15.2954 16.748L18.2656 19.7148L19.1611 20.6104L20.6104 19.1611L19.7148 18.2656L16.748 15.2954L15.873 14.4238Z" fill="#0b5f0e"/>
</svg>
