<svg width="25" height="26" viewBox="0 0 25 26" fill="none" xmlns="http://www.w3.org/2000/svg">
<path d="M14.846 25.7686H10.1561C9.86224 25.7687 9.5772 25.6683 9.34825 25.4841C9.11929 25.2999 8.96018 25.043 8.89729 24.7559L8.3729 22.3285C7.67336 22.022 7.01004 21.6387 6.39516 21.1857L4.02831 21.9394C3.74816 22.0288 3.44587 22.0196 3.17166 21.9134C2.89744 21.8072 2.66779 21.6105 2.52084 21.3558L0.170744 17.2959C0.0253388 17.041 -0.0292428 16.7442 0.0159294 16.4542C0.0611017 16.1643 0.203353 15.8982 0.419412 15.6995L2.25543 14.0246C2.17193 13.2658 2.17193 12.5002 2.25543 11.7415L0.419412 10.0704C0.203047 9.87167 0.0606022 9.60536 0.0154226 9.31508C-0.0297571 9.02481 0.0250089 8.7278 0.170744 8.47273L2.51569 4.4103C2.66264 4.1556 2.89229 3.95882 3.1665 3.85265C3.44072 3.74648 3.743 3.7373 4.02316 3.82664L6.39001 4.58038C6.70438 4.34846 7.03164 4.132 7.36921 3.93616C7.69519 3.7532 8.03018 3.58699 8.3729 3.43883L8.89858 1.014C8.96116 0.72693 9.11998 0.469875 9.34869 0.285451C9.57741 0.101026 9.86228 0.00030918 10.1561 0H14.846C15.1398 0.00030918 15.4247 0.101026 15.6534 0.285451C15.8821 0.469875 16.0409 0.72693 16.1035 1.014L16.6343 3.44011C17.3335 3.74663 17.9964 4.12993 18.6108 4.58295L20.9789 3.82922C21.2589 3.74021 21.5609 3.74956 21.8348 3.85571C22.1088 3.96187 22.3382 4.15845 22.4851 4.41288L24.83 8.47531C25.129 8.9997 25.0259 9.66324 24.5814 10.0717L22.7454 11.7466C22.8289 12.5054 22.8289 13.271 22.7454 14.0297L24.5814 15.7047C25.0259 16.1144 25.129 16.7767 24.83 17.3011L22.4851 21.3635C22.3382 21.6182 22.1085 21.815 21.8343 21.9211C21.5601 22.0273 21.2578 22.0365 20.9776 21.9472L18.6108 21.1934C17.9964 21.6461 17.3335 22.029 16.6343 22.335L16.1035 24.7559C16.0407 25.0428 15.8817 25.2995 15.653 25.4837C15.4244 25.6679 15.1396 25.7684 14.846 25.7686ZM6.85771 18.3331L7.91422 19.1062C8.15258 19.2814 8.39996 19.4424 8.65765 19.5893C8.89987 19.7298 9.14725 19.856 9.40365 19.9707L10.6058 20.4977L11.1946 23.1918H13.8101L14.3989 20.4964L15.601 19.9694C16.1254 19.7375 16.624 19.4502 17.0866 19.1113L18.1431 18.3383L20.7741 19.1757L22.0818 16.9107L20.0422 15.0515L20.1865 13.7476C20.251 13.1768 20.251 12.6009 20.1865 12.0314L20.0422 10.7275L22.0831 8.86441L20.7741 6.59806L18.1444 7.43554L17.0866 6.66248C16.6238 6.32194 16.1257 6.0321 15.601 5.79794L14.3989 5.27098L13.8101 2.57686H11.1946L10.6019 5.27226L9.40365 5.79794C8.87821 6.02807 8.37996 6.31587 7.91809 6.65604L6.86028 7.4291L4.23188 6.59162L2.92155 8.86441L4.96113 10.721L4.81683 12.0262C4.75241 12.597 4.75241 13.1729 4.81683 13.7424L4.96113 15.0463L2.92155 16.9055L4.22931 19.1706L6.85771 18.3331V18.3331ZM12.4959 18.038C11.129 18.038 9.81816 17.4951 8.85165 16.5286C7.88514 15.562 7.34216 14.2512 7.34216 12.8843C7.34216 11.5175 7.88514 10.2066 8.85165 9.24008C9.81816 8.27357 11.129 7.73059 12.4959 7.73059C13.8627 7.73059 15.1736 8.27357 16.1401 9.24008C17.1066 10.2066 17.6496 11.5175 17.6496 12.8843C17.6496 14.2512 17.1066 15.562 16.1401 16.5286C15.1736 17.4951 13.8627 18.038 12.4959 18.038ZM12.4959 10.3075C11.9913 10.308 11.4979 10.4566 11.077 10.735C10.6562 11.0133 10.3262 11.4091 10.1283 11.8733C9.93028 12.3374 9.87292 12.8495 9.96331 13.3459C10.0537 13.8424 10.2879 14.3013 10.6367 14.6659C10.9856 15.0305 11.4338 15.2846 11.9258 15.3967C12.4178 15.5089 12.9319 15.4741 13.4043 15.2967C13.8767 15.1194 14.2866 14.8072 14.5832 14.3989C14.8798 13.9907 15.05 13.5044 15.0727 13.0003V13.5157V12.8843C15.0727 12.2009 14.8013 11.5455 14.318 11.0622C13.8347 10.5789 13.1793 10.3075 12.4959 10.3075Z" fill="#0b5f0e"/>
</svg>
