<svg width="35" height="35" viewBox="0 0 35 35" fill="none" xmlns="http://www.w3.org/2000/svg">
<g clip-path="url(#clip0_22_198)">
<path d="M25.5754 27.132V26.0583C25.5754 24.3482 24.625 22.8108 23.0955 22.0459L20.1919 20.5942V15.1719C20.1919 13.7424 19.5274 12.4335 18.4154 11.5956C18.4734 11.2797 18.6666 11.0141 18.9178 10.9305C20.7535 10.3197 21.9863 8.60891 21.9863 6.67332C21.9863 3.90062 19.5089 1.80011 16.753 2.24824C14.6218 2.59445 13.0139 4.57981 13.0139 6.86538V9.89797C10.7776 12.2641 9.42505 15.47 9.42505 18.9264V23.994C9.42505 25.3371 9.79961 26.6224 10.4987 27.7312C8.82218 28.3816 7.63062 30.0122 7.63062 31.9155V32.8127H24.678C26.1621 32.8127 27.3699 31.605 27.3699 30.1211C27.3704 29.5068 27.2037 28.9041 26.8875 28.3774C26.5714 27.8508 26.1178 27.4202 25.5754 27.132V27.132ZM22.4667 23.7459C23.282 24.2298 23.7808 25.099 23.7808 26.0583V26.4836L21.7483 25.806L22.4667 23.7459ZM14.8086 6.86538C14.8086 5.45017 15.7684 4.22631 17.0413 4.01929C18.7631 3.73894 20.1919 5.06395 20.1919 6.67332C20.1926 7.23856 20.0151 7.78964 19.6847 8.24826C19.3543 8.70688 18.8878 9.04971 18.3514 9.22805C17.6432 9.4636 17.0927 10.0122 16.8112 10.7092L14.8086 9.70776V6.86538ZM11.2195 18.9264C11.2195 16.1081 12.2401 13.4462 14.1058 11.363L16.9093 12.7644C17.8274 13.223 18.3975 14.1461 18.3975 15.1719V21.7031L20.8506 22.93L20.0459 25.2389L16.603 24.091V15.6458H14.8085V25.3843L17.5264 26.2904C16.3297 27.6189 14.4352 28.1537 12.6688 27.5652L12.612 27.546C11.713 26.5763 11.2195 25.3237 11.2195 23.994V18.9264ZM24.678 31.0183H9.57877C9.93467 30.014 10.8709 29.2825 11.9821 29.2274C12.0618 29.2475 12.9034 29.5977 14.1303 29.5977C16.1764 29.5977 18.1306 28.6096 19.3365 26.8935L24.4866 28.61C24.8038 28.7155 25.0798 28.9183 25.2753 29.1895C25.4707 29.4608 25.5758 29.7867 25.5755 30.1211C25.5755 30.6157 25.1729 31.0183 24.678 31.0183H24.678Z" fill="#0b5f0e"/>
</g>
<defs>
<clipPath id="clip0_22_198">
<rect width="30.625" height="30.625" fill="white" transform="translate(2.1875 2.1875)"/>
</clipPath>
</defs>
</svg>
